SplineFontDB: 3.0
FontName: Bodoni-16-Book
FullName: Bodoni* 16 Book
FamilyName: Bodoni* 16
Weight: Book
Copyright: Copyright (c) 2017, Owen Earl,,, (EwonRael@yahoo.com)
Version: 001.3
ItalicAngle: 0
UnderlinePosition: -100
UnderlineWidth: 50
Ascent: 800
Descent: 200
InvalidEm: 0
LayerCount: 2
Layer: 0 0 "Back" 1
Layer: 1 0 "Fore" 0
PreferredKerning: 4
XUID: [1021 31 -699969567 16487490]
FSType: 0
OS2Version: 0
OS2_WeightWidthSlopeOnly: 0
OS2_UseTypoMetrics: 1
CreationTime: 1460762150
ModificationTime: 1549214484
PfmFamily: 17
TTFWeight: 400
TTFWidth: 5
LineGap: 100
VLineGap: 0
OS2TypoAscent: 800
OS2TypoAOffset: 0
OS2TypoDescent: -200
OS2TypoDOffset: 0
OS2TypoLinegap: 100
OS2WinAscent: 1000
OS2WinAOffset: 0
OS2WinDescent: 400
OS2WinDOffset: 0
HheadAscent: 1000
HheadAOffset: 0
HheadDescent: -200
HheadDOffset: 0
OS2CapHeight: 700
OS2XHeight: 460
OS2FamilyClass: 768
OS2Vendor: 'PfEd'
OS2UnicodeRanges: 00000001.00000000.00000000.00000000
Lookup: 1 0 0 "'ss02' Style Set 2 lookup 4" { "'ss02' Style Set 2 lookup 4-1"  } ['ss02' ('DFLT' <'dflt' > 'grek' <'dflt' > 'latn' <'dflt' > ) ]
Lookup: 1 0 0 "'ss03' Style Set 3 lookup 5" { "'ss03' Style Set 3 lookup 5-1"  } ['ss03' ('DFLT' <'dflt' > 'grek' <'dflt' > 'latn' <'dflt' > ) ]
Lookup: 1 0 0 "'ss01' Style Set 1 lookup 2" { "'ss01' Style Set 1 lookup 2-1"  } ['ss01' ('DFLT' <'dflt' > 'grek' <'dflt' > 'latn' <'dflt' > ) ]
Lookup: 5 0 0 "'calt' Contextual Alternates lookup 3" { "'calt' Contextual Alternates lookup 3-1"  } ['calt' ('DFLT' <'dflt' > 'grek' <'dflt' > 'latn' <'dflt' > ) ]
Lookup: 4 0 1 "'liga' Standard Ligatures lookup 0" { "'liga' Standard Ligatures lookup 0-1"  } ['liga' ('DFLT' <'dflt' > 'grek' <'dflt' > 'latn' <'dflt' > ) ]
Lookup: 258 0 0 "'kern' Horizontal Kerning lookup 0" { "kerning like they all do" [150,0,6] } ['kern' ('DFLT' <'dflt' > 'grek' <'dflt' > 'latn' <'dflt' > ) ]
MarkAttachClasses: 1
DEI: 91125
KernClass2: 31 27 "kerning like they all do"

StartChar: ampersand
Encoding: 38 38 0
GlifName: ampersand
Width: 804
Flags: HMW
LayerCount: 2
Fore
SplineSet
544 460 m 1
 784 460 l 1
 784 446 l 1
 544 446 l 1
 544 460 l 1
690 454 m 1
 664 231 502 -10 269 -10 c 0
 136 -10 40 57 40 180 c 0
 40 321 195 357 315 426 c 0
 390 469 451 515 451 630 c 0
 451 677 434 750 359 750 c 0
 282 750 256 693 256 640 c 0
 256 605 281 554 324 490 c 2
 641 14 l 1
 769 14 l 1
 769 0 l 1
 535 0 l 1
 204 490 l 2
 178 528 158 578 158 613 c 0
 158 703 243 760 359 760 c 0
 466 760 545 705 545 625 c 0
 545 505 428 469 321 413 c 0
 232 366 150 311 150 190 c 0
 150 98 215 23 309 23 c 0
 500 23 656 248 676 454 c 1
 690 454 l 1
EndSplineSet
EndChar

StartChar: period
Encoding: 46 46 1
GlifName: period
Width: 200
Flags: HMW
LayerCount: 2
Fore
SplineSet
40 50 m 0
 40 83 67 110 100 110 c 0
 133 110 160 83 160 50 c 0
 160 17 133 -10 100 -10 c 0
 67 -10 40 17 40 50 c 0
EndSplineSet
EndChar

StartChar: zero
Encoding: 48 48 2
GlifName: zero
Width: 620
Flags: HMW
LayerCount: 2
Fore
SplineSet
310 -10 m 0
 147 -10 40 162 40 375 c 0
 40 588 157 760 310 760 c 0
 463 760 580 588 580 375 c 0
 580 162 473 -10 310 -10 c 0
310 748 m 0
 186 748 155 557 155 375 c 0
 155 193 176 2 310 2 c 0
 444 2 465 193 465 375 c 0
 465 557 434 748 310 748 c 0
EndSplineSet
EndChar

StartChar: one
Encoding: 49 49 3
GlifName: one
Width: 435
VWidth: 1155
Flags: HMW
LayerCount: 2
Fore
SplineSet
50 14 m 1
 385 14 l 1
 385 0 l 1
 50 0 l 1
 50 14 l 1
67 750 m 1
 275 750 l 1
 275 7 l 1
 180 7 l 1
 180 736 l 1
 67 736 l 1
 67 750 l 1
EndSplineSet
EndChar

StartChar: two
Encoding: 50 50 4
GlifName: two
Width: 550
VWidth: 1155
Flags: HMW
LayerCount: 2
Fore
SplineSet
515 0 m 1
 40 0 l 1
 40 65 l 1
 259 278 l 2
 343 361 394 456 394 550 c 0
 394 664 345 734 237 734 c 0
 132 734 68 653 68 552 c 1
 78 569 95 582 119 582 c 0
 148 582 178 561 178 526 c 0
 178 486 150 462 115 462 c 0
 80 462 51 487 51 549 c 0
 51 666 128 760 275 760 c 0
 416 760 494 670 494 570 c 0
 494 470 424 416 370 363 c 2
 88 90 l 1
 501 90 l 1
 501 165 l 1
 515 165 l 1
 515 0 l 1
EndSplineSet
EndChar

StartChar: three
Encoding: 51 51 5
GlifName: three
Width: 521
VWidth: 1155
Flags: HMW
LayerCount: 2
Fore
SplineSet
481 200 m 0
 481 70 372 -10 231 -10 c 0
 89 -10 25 64 25 136 c 0
 25 177 50 201 85 201 c 0
 115 201 139 181 139 145 c 0
 139 113 111 90 82 90 c 0
 64 90 53 99 49 107 c 1
 53 65 108 9 215 9 c 0
 334 9 380 106 380 200 c 0
 380 274 352 399 183 399 c 1
 183 409 l 1
 424 409 481 310 481 200 c 0
183 402 m 1
 183 412 l 1
 342 412 350 527 350 591 c 0
 350 665 309 741 230 741 c 0
 154 741 94 698 79 654 c 1
 85 663 97 669 112 669 c 0
 141 669 169 649 169 614 c 0
 169 574 137 558 112 558 c 0
 82 558 55 579 55 620 c 0
 55 692 139 759 241 759 c 0
 352 759 451 701 451 591 c 0
 451 491 414 402 183 402 c 1
EndSplineSet
EndChar

StartChar: four
Encoding: 52 52 6
GlifName: four
Width: 595
VWidth: 1155
Flags: HMW
LayerCount: 2
Fore
SplineSet
550 14 m 1
 550 0 l 1
 285 0 l 1
 285 14 l 1
 380 14 l 1
 380 701 l 1
 61 222 l 1
 585 222 l 1
 585 208 l 1
 35 208 l 1
 395 750 l 1
 475 750 l 1
 475 14 l 1
 550 14 l 1
EndSplineSet
Substitution2: "'ss03' Style Set 3 lookup 5-1" four.alt
EndChar

StartChar: five
Encoding: 53 53 7
GlifName: five
Width: 500
VWidth: 1155
Flags: HMW
LayerCount: 2
Fore
SplineSet
435 660 m 1
 81 660 l 1
 81 377 l 1
 67 377 l 1
 67 750 l 1
 421 750 l 1
 421 805 l 1
 435 805 l 1
 435 660 l 1
54 95 m 1
 64 58 122 5 206 5 c 0
 335 5 365 136 365 230 c 0
 365 344 319 450 230 450 c 0
 151 450 101 404 86 377 c 1
 74 377 l 1
 90 414 151 470 252 470 c 0
 383 470 470 380 470 230 c 0
 470 100 367 -10 216 -10 c 0
 114 -10 30 57 30 129 c 0
 30 170 57 191 87 191 c 0
 112 191 144 175 144 135 c 0
 144 100 116 80 87 80 c 0
 71 80 60 88 54 95 c 1
EndSplineSet
EndChar

StartChar: six
Encoding: 54 54 8
GlifName: six
Width: 560
VWidth: 1155
Flags: HMW
LayerCount: 2
Fore
SplineSet
430 250 m 0
 430 384 378 469 289 469 c 0
 199 469 150 390 150 280 c 1
 140 280 l 1
 140 397 180 490 311 490 c 0
 412 490 530 420 530 250 c 0
 530 100 445 -10 294 -10 c 0
 143 -10 50 100 50 310 c 0
 50 553 232 760 455 760 c 1
 455 748 l 1
 281 748 153 547 153 354 c 1
 150 280 l 1
 150 146 188 4 297 4 c 0
 406 4 430 136 430 250 c 0
EndSplineSet
EndChar

StartChar: seven
Encoding: 55 55 9
GlifName: seven
Width: 505
VWidth: 1155
Flags: HMW
LayerCount: 2
Fore
SplineSet
168 76 m 0
 168 155 238 259 294 368 c 0
 333 443 394 568 435 655 c 1
 54 655 l 1
 54 580 l 1
 40 580 l 1
 40 750 l 1
 495 750 l 1
 495 750 377 506 308 367 c 0
 262 273 248 240 248 196 c 0
 248 123 298 108 298 58 c 0
 298 21 278 -10 234 -10 c 0
 195 -10 168 11 168 76 c 0
EndSplineSet
EndChar

StartChar: eight
Encoding: 56 56 10
GlifName: eight
Width: 550
VWidth: 1155
Flags: HMW
LayerCount: 2
Fore
SplineSet
160 560 m 0
 160 476 186 392 275 392 c 0
 364 392 390 476 390 560 c 0
 390 644 364 746 275 746 c 0
 186 746 160 644 160 560 c 0
60 560 m 0
 60 670 134 760 275 760 c 0
 416 760 490 670 490 560 c 0
 490 450 416 382 275 382 c 0
 134 382 60 450 60 560 c 0
140 190 m 0
 140 96 176 4 275 4 c 0
 374 4 410 96 410 190 c 0
 410 284 374 378 275 378 c 0
 176 378 140 284 140 190 c 0
40 190 m 0
 40 310 114 389 275 389 c 0
 436 389 510 310 510 190 c 0
 510 70 436 -10 275 -10 c 0
 114 -10 40 70 40 190 c 0
EndSplineSet
EndChar

StartChar: A
Encoding: 65 65 12
GlifName: A_
Width: 735
Flags: HMW
LayerCount: 2
Fore
SplineSet
20 14 m 1
 240 14 l 1
 240 0 l 1
 20 0 l 1
 20 14 l 1
430 14 m 1
 720 14 l 1
 720 0 l 1
 430 0 l 1
 430 14 l 1
194 251 m 1
 520 251 l 1
 520 238 l 1
 194 238 l 1
 194 251 l 1
337 628 m 1
 119 0 l 1
 102 0 l 1
 371 765 l 1
 385 765 l 1
 650 0 l 1
 540 0 l 1
 337 628 l 1
EndSplineSet
EndChar

StartChar: B
Encoding: 66 66 13
GlifName: B_
Width: 630
Flags: HMW
LayerCount: 2
Fore
SplineSet
310 381 m 2
 200 381 l 1
 200 392 l 1
 310 392 l 2
 386 392 460 436 460 555 c 0
 460 674 386 736 310 736 c 2
 20 736 l 1
 20 750 l 1
 310 750 l 2
 461 750 560 695 560 565 c 0
 560 435 471 381 310 381 c 2
110 750 m 1
 205 750 l 1
 205 0 l 1
 110 0 l 1
 110 750 l 1
330 0 m 2
 20 0 l 1
 20 14 l 1
 320 14 l 2
 406 14 480 91 480 210 c 0
 480 329 406 378 320 378 c 2
 200 378 l 1
 200 389 l 1
 330 389 l 2
 471 389 590 340 590 210 c 0
 590 60 491 0 330 0 c 2
EndSplineSet
EndChar

StartChar: C
Encoding: 67 67 14
GlifName: C_
Width: 670
Flags: HMW
LayerCount: 2
Fore
SplineSet
610 750 m 1
 620 750 l 1
 620 545 l 1
 619 569 567 678 555 690 c 1
 610 750 l 1
620 545 m 1
 606 545 l 1
 600 661 503 742 395 742 c 0
 221 742 160 557 160 375 c 0
 160 193 221 8 395 8 c 0
 524 8 610 99 616 205 c 1
 630 205 l 1
 630 82 528 -10 385 -10 c 0
 182 -10 45 152 45 375 c 0
 45 598 182 760 385 760 c 0
 513 760 620 668 620 545 c 1
630 205 m 1
 630 0 l 1
 620 0 l 1
 567 68 l 1
 578 79 629 181 630 205 c 1
EndSplineSet
EndChar

StartChar: D
Encoding: 68 68 15
GlifName: D_
Width: 700
Flags: HMW
LayerCount: 2
Fore
SplineSet
110 750 m 1
 205 750 l 1
 205 0 l 1
 110 0 l 1
 110 750 l 1
300 0 m 2
 20 0 l 1
 20 14 l 1
 300 14 l 2
 484 14 545 193 545 375 c 0
 545 557 474 736 300 736 c 2
 20 736 l 1
 20 750 l 1
 300 750 l 2
 523 750 660 588 660 375 c 0
 660 162 513 0 300 0 c 2
EndSplineSet
EndChar

StartChar: E
Encoding: 69 69 16
GlifName: E_
Width: 585
Flags: HMW
LayerCount: 2
Fore
SplineSet
541 225 m 1
 555 225 l 1
 555 0 l 1
 20 0 l 1
 20 14 l 1
 365 14 l 2
 502 14 541 98 541 225 c 1
110 750 m 1
 205 750 l 1
 205 0 l 1
 110 0 l 1
 110 750 l 1
20 750 m 1
 545 750 l 1
 545 545 l 1
 531 545 l 1
 531 652 492 736 375 736 c 2
 20 736 l 1
 20 750 l 1
361 278 m 1
 361 345 322 381 265 381 c 2
 185 381 l 1
 185 395 l 1
 265 395 l 2
 322 395 361 426 361 493 c 1
 375 493 l 1
 375 278 l 1
 361 278 l 1
EndSplineSet
EndChar

StartChar: F
Encoding: 70 70 17
GlifName: F_
Width: 565
Flags: HMW
LayerCount: 2
Fore
SplineSet
20 750 m 1
 535 750 l 1
 535 545 l 1
 521 545 l 1
 521 652 482 736 365 736 c 2
 20 736 l 1
 20 750 l 1
20 14 m 1
 305 14 l 1
 305 0 l 1
 20 0 l 1
 20 14 l 1
110 750 m 1
 205 750 l 1
 205 0 l 1
 110 0 l 1
 110 750 l 1
371 268 m 1
 371 335 337 366 250 366 c 2
 185 366 l 1
 185 380 l 1
 250 380 l 2
 337 380 371 406 371 473 c 1
 385 473 l 1
 385 268 l 1
 371 268 l 1
EndSplineSet
EndChar

StartChar: G
Encoding: 71 71 18
GlifName: G_
Width: 715
Flags: HMW
LayerCount: 2
Fore
SplineSet
620 545 m 1
 620 566 567 680 555 691 c 1
 610 750 l 1
 620 750 l 1
 620 545 l 1
435 292 m 1
 705 292 l 1
 705 278 l 1
 435 278 l 1
 435 292 l 1
540 282 m 1
 645 282 l 1
 645 165 l 1
 615 102 533 -10 370 -10 c 0
 162 -10 45 152 45 375 c 0
 45 598 182 760 385 760 c 0
 513 760 620 668 620 545 c 1
 606 545 l 1
 600 661 503 742 395 742 c 0
 221 742 160 557 160 375 c 0
 160 193 201 4 370 4 c 0
 494 4 530 103 540 125 c 1
 540 282 l 1
EndSplineSet
EndChar

StartChar: H
Encoding: 72 72 19
GlifName: H_
Width: 735
Flags: HMW
LayerCount: 2
Fore
SplineSet
185 377 m 1
 555 377 l 1
 555 363 l 1
 185 363 l 1
 185 377 l 1
435 14 m 1
 720 14 l 1
 720 0 l 1
 435 0 l 1
 435 14 l 1
20 14 m 1
 305 14 l 1
 305 0 l 1
 20 0 l 1
 20 14 l 1
435 750 m 1
 720 750 l 1
 720 736 l 1
 435 736 l 1
 435 750 l 1
20 750 m 1
 305 750 l 1
 305 736 l 1
 20 736 l 1
 20 750 l 1
535 750 m 1
 630 750 l 1
 630 0 l 1
 535 0 l 1
 535 750 l 1
110 750 m 1
 205 750 l 1
 205 0 l 1
 110 0 l 1
 110 750 l 1
EndSplineSet
EndChar

StartChar: I
Encoding: 73 73 20
GlifName: I_
Width: 360
Flags: HMW
LayerCount: 2
Fore
SplineSet
20 14 m 1
 345 14 l 1
 345 0 l 1
 20 0 l 1
 20 14 l 1
20 750 m 1
 345 750 l 1
 345 736 l 1
 20 736 l 1
 20 750 l 1
130 750 m 1
 225 750 l 1
 225 0 l 1
 130 0 l 1
 130 750 l 1
EndSplineSet
EndChar

StartChar: J
Encoding: 74 74 21
GlifName: J_
Width: 426
Flags: HMW
LayerCount: 2
Fore
SplineSet
86 750 m 1
 411 750 l 1
 411 736 l 1
 86 736 l 1
 86 750 l 1
216 750 m 1
 311 750 l 1
 311 170 l 1
 291 100 252 -30 131 -30 c 0
 54 -30 15 35 15 85 c 0
 15 127 42 150 72 150 c 0
 97 150 128 132 128 91 c 0
 128 51 99 33 65 33 c 0
 55 33 47 37 45 38 c 1
 55 19 78 -16 131 -16 c 0
 206 -16 216 50 216 190 c 2
 216 750 l 1
EndSplineSet
Substitution2: "'ss02' Style Set 2 lookup 4-1" J.alt
EndChar

StartChar: K
Encoding: 75 75 22
GlifName: K_
Width: 680
Flags: HMW
LayerCount: 2
Fore
SplineSet
20 14 m 1
 305 14 l 1
 305 0 l 1
 20 0 l 1
 20 14 l 1
20 750 m 1
 305 750 l 1
 305 736 l 1
 20 736 l 1
 20 750 l 1
110 750 m 1
 205 750 l 1
 205 0 l 1
 110 0 l 1
 110 750 l 1
137 217 m 1
 117 217 l 1
 511 748 l 1
 531 748 l 1
 137 217 l 1
365 14 m 1
 675 14 l 1
 675 0 l 1
 365 0 l 1
 365 14 l 1
630 736 m 1
 390 736 l 1
 390 750 l 1
 630 750 l 1
 630 736 l 1
597 0 m 1
 477 0 l 1
 257 392 l 1
 319 468 l 1
 597 0 l 1
EndSplineSet
EndChar

StartChar: L
Encoding: 76 76 23
GlifName: L_
Width: 570
Flags: HMW
LayerCount: 2
Fore
SplineSet
110 750 m 1
 205 750 l 1
 205 0 l 1
 110 0 l 1
 110 750 l 1
20 750 m 1
 295 750 l 1
 295 736 l 1
 20 736 l 1
 20 750 l 1
550 0 m 1
 20 0 l 1
 20 14 l 1
 360 14 l 2
 517 14 536 98 536 225 c 1
 550 225 l 1
 550 0 l 1
EndSplineSet
EndChar

StartChar: M
Encoding: 77 77 24
GlifName: M_
Width: 825
Flags: HMW
LayerCount: 2
Fore
SplineSet
810 750 m 1
 810 736 l 1
 740 736 l 1
 740 0 l 1
 645 0 l 1
 645 750 l 1
 810 750 l 1
25 14 m 1
 183 14 l 1
 183 0 l 1
 25 0 l 1
 25 14 l 1
565 14 m 1
 810 14 l 1
 810 0 l 1
 565 0 l 1
 565 14 l 1
423 130 m 1
 637 750 l 1
 652 750 l 1
 391 -10 l 1
 376 -10 l 1
 98 750 l 1
 194 750 l 1
 423 130 l 1
96 736 m 1
 20 736 l 1
 20 750 l 1
 111 750 l 1
 111 0 l 1
 96 0 l 1
 96 736 l 1
EndSplineSet
EndChar

StartChar: N
Encoding: 78 78 25
GlifName: N_
Width: 730
Flags: HMW
LayerCount: 2
Fore
SplineSet
595 750 m 1
 610 750 l 1
 610 -10 l 1
 587 -10 l 1
 120 750 l 1
 235 750 l 1
 595 155 l 1
 595 750 l 1
482 750 m 1
 715 750 l 1
 715 736 l 1
 482 736 l 1
 482 750 l 1
20 14 m 1
 255 14 l 1
 255 0 l 1
 20 0 l 1
 20 14 l 1
123 736 m 1
 20 736 l 1
 20 750 l 1
 138 750 l 1
 138 0 l 1
 123 0 l 1
 123 736 l 1
EndSplineSet
EndChar

StartChar: O
Encoding: 79 79 26
GlifName: O_
Width: 725
Flags: HMW
LayerCount: 2
Fore
SplineSet
365 -10 m 0
 162 -10 45 162 45 375 c 0
 45 588 172 760 365 760 c 0
 558 760 685 588 685 375 c 0
 685 162 568 -10 365 -10 c 0
365 748 m 0
 201 748 160 557 160 375 c 0
 160 193 191 2 365 2 c 0
 539 2 570 193 570 375 c 0
 570 557 529 748 365 748 c 0
EndSplineSet
EndChar

StartChar: P
Encoding: 80 80 27
GlifName: P_
Width: 610
Flags: HMW
LayerCount: 2
Fore
SplineSet
110 750 m 1
 205 750 l 1
 205 0 l 1
 110 0 l 1
 110 750 l 1
20 14 m 1
 295 14 l 1
 295 0 l 1
 20 0 l 1
 20 14 l 1
315 333 m 2
 185 333 l 1
 185 347 l 1
 315 347 l 2
 411 347 465 451 465 540 c 0
 465 629 411 736 315 736 c 2
 20 736 l 1
 20 750 l 1
 315 750 l 2
 496 750 575 670 575 540 c 0
 575 410 496 333 315 333 c 2
EndSplineSet
EndChar

StartChar: Q
Encoding: 81 81 28
GlifName: Q_
Width: 725
Flags: HMW
LayerCount: 2
Fore
SplineSet
365 -10 m 0
 162 -10 45 162 45 375 c 0
 45 588 172 760 365 760 c 0
 558 760 685 588 685 375 c 0
 685 162 568 -10 365 -10 c 0
365 748 m 0
 201 748 160 557 160 375 c 0
 160 193 191 2 365 2 c 0
 539 2 570 193 570 375 c 0
 570 557 529 748 365 748 c 0
535 -236 m 1
 535 -250 l 1
 322 -250 305 -174 305 -1 c 1
 319 -5 406 -5 420 -1 c 1
 420 -183 437 -236 535 -236 c 1
EndSplineSet
EndChar

StartChar: R
Encoding: 82 82 29
GlifName: R_
Width: 695
Flags: HMW
LayerCount: 2
Fore
SplineSet
350 383 m 2
 200 383 l 1
 200 392 l 1
 350 392 l 2
 446 392 500 456 500 565 c 0
 500 674 446 736 350 736 c 2
 20 736 l 1
 20 750 l 1
 350 750 l 2
 501 750 600 695 600 565 c 0
 600 435 511 383 350 383 c 2
20 14 m 1
 335 14 l 1
 335 0 l 1
 20 0 l 1
 20 14 l 1
130 750 m 1
 225 750 l 1
 225 0 l 1
 130 0 l 1
 130 750 l 1
685 10 m 1
 669 1 634 -5 595 -5 c 0
 362 -5 591 378 345 378 c 2
 200 378 l 1
 200 385 l 1
 365 385 l 2
 708 385 507 12 630 12 c 0
 651 12 667 17 681 23 c 1
 685 10 l 1
EndSplineSet
Substitution2: "'ss01' Style Set 1 lookup 2-1" R.alt
EndChar

StartChar: S
Encoding: 83 83 30
GlifName: S_
Width: 560
Flags: HMW
LayerCount: 2
Fore
SplineSet
480 555 m 1
 466 555 l 1
 446 681 371 744 272 744 c 0
 176 744 125 691 125 612 c 0
 125 427 520 474 520 200 c 0
 520 70 431 -15 290 -15 c 0
 134 -15 69 75 45 195 c 1
 59 195 l 1
 80 89 146 0 281 0 c 0
 387 0 454 58 454 161 c 0
 454 366 55 315 55 575 c 0
 55 685 151 760 262 760 c 0
 380 760 460 696 480 555 c 1
470 760 m 1
 480 760 l 1
 480 555 l 1
 476 573 433 677 421 691 c 1
 470 760 l 1
55 -10 m 1
 45 -10 l 1
 45 195 l 1
 51 173 92 77 102 64 c 1
 55 -10 l 1
EndSplineSet
EndChar

StartChar: T
Encoding: 84 84 31
GlifName: T_
Width: 630
Flags: HMW
LayerCount: 2
Fore
SplineSet
160 14 m 1
 475 14 l 1
 475 0 l 1
 160 0 l 1
 160 14 l 1
270 744 m 1
 365 744 l 1
 365 0 l 1
 270 0 l 1
 270 744 l 1
465 736 m 2
 170 736 l 2
 53 736 34 652 34 525 c 1
 20 525 l 1
 20 750 l 1
 615 750 l 1
 615 525 l 1
 601 525 l 1
 601 652 582 736 465 736 c 2
EndSplineSet
EndChar

StartChar: U
Encoding: 85 85 32
GlifName: U_
Width: 695
Flags: HMW
LayerCount: 2
Fore
SplineSet
485 750 m 1
 680 750 l 1
 680 736 l 1
 485 736 l 1
 485 750 l 1
20 750 m 1
 305 750 l 1
 305 736 l 1
 20 736 l 1
 20 750 l 1
573 750 m 1
 587 750 l 1
 587 230 l 2
 587 65 518 -15 360 -15 c 0
 187 -15 110 57 110 230 c 2
 110 750 l 1
 205 750 l 1
 205 240 l 2
 205 108 236 3 380 3 c 0
 501 3 573 74 573 230 c 2
 573 750 l 1
EndSplineSet
EndChar

StartChar: V
Encoding: 86 86 33
GlifName: V_
Width: 725
Flags: HMW
LayerCount: 2
Fore
SplineSet
715 736 m 1
 495 736 l 1
 495 750 l 1
 715 750 l 1
 715 736 l 1
305 736 m 1
 15 736 l 1
 15 750 l 1
 305 750 l 1
 305 736 l 1
398 122 m 1
 620 750 l 1
 637 750 l 1
 364 -15 l 1
 350 -15 l 1
 85 750 l 1
 195 750 l 1
 398 122 l 1
EndSplineSet
EndChar

StartChar: W
Encoding: 87 87 34
GlifName: W_
Width: 975
Flags: HMW
LayerCount: 2
Fore
SplineSet
526 475 m 1
 357 -10 l 1
 340 -10 l 1
 104 750 l 1
 204 750 l 1
 392 142 l 1
 517 497 l 1
 526 475 l 1
546 475 m 1
 535 491 l 1
 621 750 l 1
 638 750 l 1
 546 475 l 1
965 736 m 1
 765 736 l 1
 765 750 l 1
 965 750 l 1
 965 736 l 1
465 750 m 1
 653 142 l 1
 862 750 l 1
 879 750 l 1
 618 -10 l 1
 601 -10 l 1
 365 750 l 1
 465 750 l 1
715 736 m 1
 15 736 l 1
 15 750 l 1
 715 750 l 1
 715 736 l 1
EndSplineSet
EndChar

StartChar: X
Encoding: 88 88 35
GlifName: X_
Width: 735
Flags: HMW
LayerCount: 2
Fore
SplineSet
374 377 m 1
 354 377 l 1
 569 748 l 1
 586 748 l 1
 374 377 l 1
129 0 m 1
 110 0 l 1
 366 417 l 1
 385 417 l 1
 129 0 l 1
445 14 m 1
 725 14 l 1
 725 0 l 1
 445 0 l 1
 445 14 l 1
15 14 m 1
 255 14 l 1
 255 0 l 1
 15 0 l 1
 15 14 l 1
330 736 m 1
 50 736 l 1
 50 750 l 1
 330 750 l 1
 330 736 l 1
670 736 m 1
 450 736 l 1
 450 750 l 1
 670 750 l 1
 670 736 l 1
661 0 m 1
 541 0 l 1
 110 750 l 1
 226 750 l 1
 661 0 l 1
EndSplineSet
EndChar

StartChar: Y
Encoding: 89 89 36
GlifName: Y_
Width: 710
Flags: HMW
LayerCount: 2
Fore
SplineSet
700 736 m 1
 490 736 l 1
 490 750 l 1
 700 750 l 1
 700 736 l 1
305 736 m 1
 15 736 l 1
 15 750 l 1
 305 750 l 1
 305 736 l 1
230 14 m 1
 515 14 l 1
 515 0 l 1
 230 0 l 1
 230 14 l 1
406 396 m 1
 610 748 l 1
 627 748 l 1
 415 383 l 1
 415 0 l 1
 320 0 l 1
 320 360 l 1
 79 750 l 1
 189 750 l 1
 406 396 l 1
EndSplineSet
EndChar

StartChar: Z
Encoding: 90 90 37
GlifName: Z_
Width: 560
Flags: HMW
LayerCount: 2
Fore
SplineSet
35 750 m 1
 515 750 l 1
 515 736 l 1
 120 14 l 1
 345 14 l 2
 482 14 511 63 511 190 c 1
 525 190 l 1
 525 0 l 1
 15 0 l 1
 15 14 l 1
 410 736 l 1
 215 736 l 2
 78 736 49 687 49 580 c 1
 35 580 l 1
 35 750 l 1
EndSplineSet
EndChar

StartChar: a
Encoding: 97 97 38
GlifName: a
Width: 527
VWidth: 1155
Flags: HMW
LayerCount: 2
Fore
SplineSet
524 63 m 1
 501 13 459 -10 416 -10 c 0
 369 -10 324 10 324 73 c 2
 324 305 l 2
 324 372 316 451 236 451 c 0
 185 451 145 433 129 416 c 1
 161 421 189 400 189 368 c 0
 189 328 155 311 130 311 c 0
 100 311 78 330 78 366 c 0
 78 428 165 468 256 468 c 0
 406 468 414 386 414 305 c 2
 414 54 l 2
 414 32 427 17 451 17 c 0
 469 17 495 31 514 68 c 1
 524 63 l 1
262 258 m 2
 376 258 l 1
 376 244 l 1
 262 244 l 2
 186 244 145 190 145 124 c 0
 145 63 169 17 220 17 c 0
 278 17 324 69 324 181 c 1
 335 181 l 1
 335 57 289 -10 178 -10 c 0
 99 -10 43 39 43 113 c 0
 43 197 116 258 262 258 c 2
EndSplineSet
EndChar

StartChar: b
Encoding: 98 98 39
GlifName: b
Width: 585
VWidth: 1155
Flags: HMW
LayerCount: 2
Fore
SplineSet
169 230 m 0
 169 382 229 469 336 469 c 0
 445 469 548 380 548 230 c 0
 548 80 445 -10 336 -10 c 0
 229 -10 169 78 169 230 c 0
180 230 m 0
 180 82 244 12 317 12 c 0
 401 12 443 96 443 230 c 0
 443 364 401 447 317 447 c 0
 244 447 180 378 180 230 c 0
90 736 m 1
 23 736 l 1
 23 750 l 1
 180 750 l 1
 180 0 l 1
 23 0 l 1
 23 14 l 1
 90 14 l 1
 90 736 l 1
EndSplineSet
EndChar

StartChar: c
Encoding: 99 99 40
GlifName: c
Width: 489
VWidth: 1155
Flags: HMW
LayerCount: 2
Fore
SplineSet
415 376 m 1
 404 418 350 455 282 455 c 0
 163 455 143 324 143 230 c 0
 143 116 167 6 276 6 c 0
 357 6 405 65 431 143 c 1
 446 143 l 1
 420 56 367 -10 266 -10 c 0
 135 -10 38 80 38 230 c 0
 38 360 121 470 272 470 c 0
 374 470 438 413 438 341 c 0
 438 300 411 279 381 279 c 0
 356 279 324 295 324 335 c 0
 324 370 352 390 381 390 c 0
 397 390 411 382 415 376 c 1
EndSplineSet
EndChar

StartChar: d
Encoding: 100 100 41
GlifName: d
Width: 585
VWidth: 1155
Flags: HMW
LayerCount: 2
Fore
SplineSet
417 230 m 0
 417 78 357 -10 250 -10 c 0
 141 -10 38 80 38 230 c 0
 38 380 141 469 250 469 c 0
 357 469 417 382 417 230 c 0
406 230 m 0
 406 378 341 447 268 447 c 0
 184 447 143 364 143 230 c 0
 143 96 184 12 268 12 c 0
 341 12 406 82 406 230 c 0
563 14 m 1
 563 0 l 1
 406 0 l 1
 406 736 l 1
 340 736 l 1
 340 750 l 1
 496 750 l 1
 496 14 l 1
 563 14 l 1
EndSplineSet
EndChar

StartChar: e
Encoding: 101 101 42
GlifName: e
Width: 509
VWidth: 1155
Flags: HMW
LayerCount: 2
Fore
SplineSet
105 254 m 1
 105 268 l 1
 369 268 l 1
 369 340 357 456 268 456 c 0
 169 456 143 344 143 230 c 0
 143 116 172 4 281 4 c 0
 375 4 438 66 463 143 c 1
 476 143 l 1
 450 56 382 -10 271 -10 c 0
 140 -10 38 80 38 230 c 0
 38 380 137 470 268 470 c 0
 417 470 475 363 475 254 c 1
 105 254 l 1
EndSplineSet
EndChar

StartChar: f
Encoding: 102 102 43
GlifName: f
Width: 356
VWidth: 1155
Flags: HMW
LayerCount: 2
Fore
SplineSet
18 14 m 1
 311 14 l 1
 311 0 l 1
 18 0 l 1
 18 14 l 1
18 460 m 1
 331 460 l 1
 331 446 l 1
 18 446 l 1
 18 460 l 1
397 694 m 1
 389 717 364 746 302 746 c 0
 222 746 195 667 195 540 c 2
 195 0 l 1
 105 0 l 1
 105 512 l 2
 105 643 172 760 302 760 c 0
 383 760 425 708 425 661 c 0
 425 620 398 599 368 599 c 0
 343 599 312 615 312 654 c 0
 312 693 340 709 373 709 c 0
 384 709 394 704 397 694 c 1
EndSplineSet
EndChar

StartChar: g
Encoding: 103 103 44
GlifName: g
Width: 569
VWidth: 1155
Flags: HMW
LayerCount: 2
Fore
SplineSet
55 74 m 0
 55 148 154 174 242 174 c 1
 241 168 l 1
 198 168 123 150 123 106 c 0
 123 69 165 69 220 69 c 0
 255 69 263 70 291 70 c 0
 366 70 448 54 448 -82 c 0
 448 -203 348 -260 238 -260 c 0
 125 -260 23 -220 23 -125 c 0
 23 -34 117 -4 162 -4 c 2
 168 -4 l 1
 123 -29 118 -70 118 -102 c 0
 118 -170 150 -244 246 -244 c 0
 346 -244 414 -193 414 -101 c 0
 414 -40 363 -9 298 -9 c 0
 277 -9 226 -9 204 -9 c 0
 114 -9 55 12 55 74 c 0
143 315 m 0
 143 241 148 176 227 176 c 0
 286 176 311 241 311 315 c 0
 311 389 286 456 227 456 c 0
 168 456 143 389 143 315 c 0
48 315 m 0
 48 425 146 470 227 470 c 0
 308 470 406 425 406 315 c 0
 406 205 308 162 227 162 c 0
 146 162 48 205 48 315 c 0
531 416 m 1
 524 438 505 451 473 451 c 0
 434 451 379 426 359 339 c 1
 348 347 l 1
 368 438 433 465 473 465 c 0
 524 465 552 432 552 394 c 0
 552 349 526 334 501 334 c 0
 476 334 451 351 451 384 c 0
 451 412 472 431 500 431 c 0
 515 431 527 424 531 416 c 1
EndSplineSet
EndChar

StartChar: h
Encoding: 104 104 45
GlifName: h
Width: 574
VWidth: 1155
Flags: HMW
LayerCount: 2
Fore
SplineSet
395 308 m 2
 395 392 377 449 321 449 c 0
 207 449 180 321 180 223 c 1
 169 221 l 1
 169 321 188 470 343 470 c 0
 460 470 485 406 485 319 c 2
 485 0 l 1
 395 0 l 1
 395 308 l 2
328 14 m 1
 551 14 l 1
 551 0 l 1
 328 0 l 1
 328 14 l 1
23 14 m 1
 246 14 l 1
 246 0 l 1
 23 0 l 1
 23 14 l 1
90 736 m 1
 23 736 l 1
 23 750 l 1
 180 750 l 1
 180 0 l 1
 90 0 l 1
 90 736 l 1
EndSplineSet
EndChar

StartChar: i
Encoding: 105 105 46
GlifName: i
Width: 279
VWidth: 1155
Flags: HMW
LayerCount: 2
Fore
SplineSet
28 14 m 1
 251 14 l 1
 251 0 l 1
 28 0 l 1
 28 14 l 1
70 700 m 0
 70 733 97 760 130 760 c 0
 163 760 190 733 190 700 c 0
 190 667 163 640 130 640 c 0
 97 640 70 667 70 700 c 0
95 446 m 1
 28 446 l 1
 28 460 l 1
 185 460 l 1
 185 0 l 1
 95 0 l 1
 95 446 l 1
EndSplineSet
EndChar

StartChar: j
Encoding: 106 106 47
GlifName: j
Width: 279
VWidth: 1155
Flags: HMW
LayerCount: 2
Fore
SplineSet
87 700 m 0
 87 733 114 760 147 760 c 0
 180 760 207 733 207 700 c 0
 207 667 180 640 147 640 c 0
 114 640 87 667 87 700 c 0
200 460 m 1
 200 -12 l 2
 200 -143 173 -260 43 -260 c 0
 -38 -260 -80 -208 -80 -151 c 0
 -80 -110 -53 -89 -23 -89 c 0
 2 -89 33 -103 33 -143 c 0
 33 -183 4 -199 -30 -199 c 0
 -41 -199 -52 -191 -53 -184 c 1
 -53 -209 -16 -245 38 -245 c 0
 128 -245 110 -107 110 20 c 2
 110 446 l 1
 23 446 l 1
 23 460 l 1
 200 460 l 1
EndSplineSet
EndChar

StartChar: k
Encoding: 107 107 48
GlifName: k
Width: 578
VWidth: 1155
Flags: HMW
LayerCount: 2
Fore
SplineSet
528 0 m 1
 415 0 l 1
 192 261 l 1
 444 460 l 1
 466 460 l 1
 270 303 l 1
 528 0 l 1
332 14 m 1
 566 14 l 1
 566 0 l 1
 332 0 l 1
 332 14 l 1
532 446 m 1
 316 446 l 1
 316 460 l 1
 532 460 l 1
 532 446 l 1
23 14 m 1
 270 14 l 1
 270 0 l 1
 23 0 l 1
 23 14 l 1
110 736 m 1
 23 736 l 1
 23 750 l 1
 200 750 l 1
 200 0 l 1
 110 0 l 1
 110 736 l 1
EndSplineSet
EndChar

StartChar: l
Encoding: 108 108 49
GlifName: l
Width: 309
VWidth: 1155
Flags: HMW
LayerCount: 2
Fore
SplineSet
23 14 m 1
 286 14 l 1
 286 0 l 1
 23 0 l 1
 23 14 l 1
110 736 m 1
 23 736 l 1
 23 750 l 1
 200 750 l 1
 200 0 l 1
 110 0 l 1
 110 736 l 1
EndSplineSet
EndChar

StartChar: m
Encoding: 109 109 50
GlifName: m
Width: 839
VWidth: 1155
Flags: HMW
LayerCount: 2
Fore
SplineSet
465 319 m 2
 465 0 l 1
 375 0 l 1
 375 308 l 2
 375 392 365 449 309 449 c 0
 209 449 180 321 180 223 c 1
 169 221 l 1
 169 321 190 470 331 470 c 0
 431 470 465 406 465 319 c 2
23 14 m 1
 246 14 l 1
 246 0 l 1
 23 0 l 1
 23 14 l 1
308 14 m 1
 531 14 l 1
 531 0 l 1
 308 0 l 1
 308 14 l 1
593 14 m 1
 816 14 l 1
 816 0 l 1
 593 0 l 1
 593 14 l 1
90 446 m 1
 23 446 l 1
 23 460 l 1
 180 460 l 1
 180 0 l 1
 90 0 l 1
 90 446 l 1
750 319 m 2
 750 0 l 1
 660 0 l 1
 660 308 l 2
 660 392 644 449 588 449 c 0
 484 449 465 321 465 223 c 1
 452 221 l 1
 452 321 461 470 609 470 c 0
 709 470 750 406 750 319 c 2
EndSplineSet
EndChar

StartChar: n
Encoding: 110 110 51
GlifName: n
Width: 574
VWidth: 1155
Flags: HMW
LayerCount: 2
Fore
SplineSet
395 308 m 2
 395 392 377 449 321 449 c 0
 215 449 180 321 180 223 c 1
 169 221 l 1
 169 321 195 470 343 470 c 0
 454 470 485 406 485 319 c 2
 485 0 l 1
 395 0 l 1
 395 308 l 2
328 14 m 1
 551 14 l 1
 551 0 l 1
 328 0 l 1
 328 14 l 1
23 14 m 1
 246 14 l 1
 246 0 l 1
 23 0 l 1
 23 14 l 1
90 446 m 1
 23 446 l 1
 23 460 l 1
 180 460 l 1
 180 0 l 1
 90 0 l 1
 90 446 l 1
EndSplineSet
EndChar

StartChar: o
Encoding: 111 111 52
GlifName: o
Width: 534
VWidth: 1155
Flags: HMW
LayerCount: 2
Fore
SplineSet
143 230 m 0
 143 136 158 4 267 4 c 0
 376 4 391 136 391 230 c 0
 391 324 376 456 267 456 c 0
 158 456 143 324 143 230 c 0
38 230 m 0
 38 360 126 470 267 470 c 0
 408 470 496 360 496 230 c 0
 496 100 408 -10 267 -10 c 0
 126 -10 38 100 38 230 c 0
EndSplineSet
EndChar

StartChar: p
Encoding: 112 112 53
GlifName: p
Width: 585
VWidth: 1155
Flags: HMW
LayerCount: 2
Fore
SplineSet
169 230 m 0
 169 382 229 469 336 469 c 0
 445 469 548 380 548 230 c 0
 548 80 445 -10 336 -10 c 0
 229 -10 169 78 169 230 c 0
180 230 m 0
 180 82 244 12 317 12 c 0
 401 12 443 96 443 230 c 0
 443 364 401 447 317 447 c 0
 244 447 180 378 180 230 c 0
23 -236 m 1
 246 -236 l 1
 246 -250 l 1
 23 -250 l 1
 23 -236 l 1
90 446 m 1
 23 446 l 1
 23 460 l 1
 180 460 l 1
 180 -250 l 1
 90 -250 l 1
 90 446 l 1
EndSplineSet
EndChar

StartChar: q
Encoding: 113 113 54
GlifName: q
Width: 585
VWidth: 1155
Flags: HMW
LayerCount: 2
Fore
SplineSet
417 230 m 0
 417 78 357 -10 250 -10 c 0
 141 -10 38 80 38 230 c 0
 38 380 141 469 250 469 c 0
 357 469 417 382 417 230 c 0
406 230 m 0
 406 378 341 447 268 447 c 0
 184 447 143 364 143 230 c 0
 143 96 184 12 268 12 c 0
 341 12 406 82 406 230 c 0
563 -236 m 1
 563 -250 l 1
 340 -250 l 1
 340 -236 l 1
 563 -236 l 1
563 460 m 1
 563 446 l 1
 496 446 l 1
 496 -250 l 1
 406 -250 l 1
 406 460 l 1
 563 460 l 1
EndSplineSet
EndChar

StartChar: r
Encoding: 114 114 55
GlifName: r
Width: 409
VWidth: 1155
Flags: HMW
LayerCount: 2
Fore
SplineSet
360 429 m 1
 349 448 327 456 305 456 c 0
 205 456 180 328 180 223 c 1
 169 223 l 1
 169 345 194 470 305 470 c 0
 351 470 397 438 397 389 c 0
 397 355 377 328 339 328 c 0
 306 328 280 346 280 383 c 0
 280 429 333 448 360 429 c 1
23 14 m 1
 246 14 l 1
 246 0 l 1
 23 0 l 1
 23 14 l 1
90 446 m 1
 23 446 l 1
 23 460 l 1
 180 460 l 1
 180 0 l 1
 90 0 l 1
 90 446 l 1
EndSplineSet
EndChar

StartChar: s
Encoding: 115 115 56
GlifName: s
Width: 426
VWidth: 1155
Flags: HMW
LayerCount: 2
Fore
SplineSet
342 377 m 1
 339 382 311 414 306 419 c 1
 350 470 l 1
 360 470 l 1
 360 330 l 1
 347 330 l 1
 346 337 345 371 342 377 c 1
357 330 m 1
 347 330 l 1
 341 387 282 454 196 454 c 0
 151 454 100 429 100 378 c 0
 100 271 393 320 393 142 c 0
 393 53 319 -10 222 -10 c 0
 128 -10 51 52 46 130 c 1
 57 130 l 1
 71 63 137 5 214 5 c 0
 274 5 334 29 334 94 c 0
 334 221 55 149 55 335 c 0
 55 399 100 469 195 469 c 0
 293 469 357 396 357 330 c 1
54 -10 m 1
 43 -10 l 1
 43 130 l 1
 57 130 l 1
 58 117 61 95 63 89 c 1
 67 83 95 45 98 42 c 1
 54 -10 l 1
EndSplineSet
EndChar

StartChar: t
Encoding: 116 116 57
GlifName: t
Width: 321
VWidth: 1155
Flags: HMW
LayerCount: 2
Fore
SplineSet
13 460 m 1
 283 460 l 1
 283 446 l 1
 13 446 l 1
 13 460 l 1
313 102 m 1
 289 38 238 -7 177 -7 c 0
 95 -7 86 56 86 111 c 2
 86 560 l 1
 116 560 156 575 176 590 c 1
 176 85 l 2
 176 35 187 22 214 22 c 0
 246 22 282 61 301 107 c 1
 313 102 l 1
EndSplineSet
EndChar

StartChar: u
Encoding: 117 117 58
GlifName: u
Width: 574
VWidth: 1155
Flags: HMW
LayerCount: 2
Fore
SplineSet
180 460 m 1
 180 152 l 2
 180 68 198 11 254 11 c 0
 360 11 395 139 395 237 c 1
 405 239 l 1
 405 139 380 -10 232 -10 c 0
 121 -10 90 54 90 141 c 2
 90 446 l 1
 23 446 l 1
 23 460 l 1
 180 460 l 1
485 14 m 1
 551 14 l 1
 551 0 l 1
 395 0 l 1
 395 446 l 1
 325 446 l 1
 325 460 l 1
 485 460 l 1
 485 14 l 1
EndSplineSet
EndChar

StartChar: v
Encoding: 118 118 59
GlifName: v
Width: 541
VWidth: 1155
Flags: HMW
LayerCount: 2
Fore
SplineSet
535 446 m 1
 348 446 l 1
 348 460 l 1
 535 460 l 1
 535 446 l 1
257 446 m 1
 3 446 l 1
 3 460 l 1
 257 460 l 1
 257 446 l 1
302 103 m 1
 446 460 l 1
 464 460 l 1
 274 -10 l 1
 258 -10 l 1
 65 460 l 1
 165 460 l 1
 302 103 l 1
EndSplineSet
EndChar

StartChar: w
Encoding: 119 119 60
GlifName: w
Width: 757
VWidth: 1155
Flags: HMW
LayerCount: 2
Fore
SplineSet
247 446 m 1
 3 446 l 1
 3 460 l 1
 247 460 l 1
 247 446 l 1
751 446 m 1
 544 446 l 1
 544 460 l 1
 751 460 l 1
 751 446 l 1
266 110 m 1
 413 470 l 1
 430 470 l 1
 539 125 l 1
 650 460 l 1
 668 460 l 1
 511 -10 l 1
 494 -10 l 1
 374 331 l 1
 235 -10 l 1
 218 -10 l 1
 65 460 l 1
 159 460 l 1
 266 110 l 1
EndSplineSet
EndChar

StartChar: x
Encoding: 120 120 61
GlifName: x
Width: 553
VWidth: 1155
Flags: HMW
LayerCount: 2
Fore
SplineSet
320 14 m 1
 540 14 l 1
 540 0 l 1
 320 0 l 1
 320 14 l 1
13 14 m 1
 202 14 l 1
 202 0 l 1
 13 0 l 1
 13 14 l 1
262 446 m 1
 23 446 l 1
 23 460 l 1
 262 460 l 1
 262 446 l 1
525 446 m 1
 342 446 l 1
 342 460 l 1
 525 460 l 1
 525 446 l 1
499 0 m 1
 389 0 l 1
 75 460 l 1
 185 460 l 1
 499 0 l 1
88 0 m 1
 69 0 l 1
 441 460 l 1
 460 460 l 1
 88 0 l 1
EndSplineSet
EndChar

StartChar: y
Encoding: 121 121 62
GlifName: y
Width: 547
VWidth: 1155
Flags: HMW
LayerCount: 2
Fore
SplineSet
244 446 m 1
 3 446 l 1
 3 460 l 1
 244 460 l 1
 244 446 l 1
554 446 m 1
 380 446 l 1
 380 460 l 1
 554 460 l 1
 554 446 l 1
331 90 m 1
 281 -18 l 1
 54 460 l 1
 154 460 l 1
 331 90 l 1
198 -196 m 1
 477 460 l 1
 496 460 l 1
 215 -198 l 2
 197 -239 181 -264 143 -264 c 0
 118 -264 87 -248 87 -210 c 0
 87 -177 110 -154 142 -154 c 0
 170 -154 193 -172 198 -196 c 1
EndSplineSet
EndChar

StartChar: z
Encoding: 122 122 63
GlifName: z
Width: 446
VWidth: 1155
Flags: HMW
LayerCount: 2
Fore
SplineSet
194 446 m 2
 80 446 60 389 60 288 c 1
 46 288 l 1
 46 460 l 1
 407 460 l 1
 407 446 l 1
 126 14 l 1
 252 14 l 2
 389 14 410 60 410 184 c 1
 423 184 l 1
 423 0 l 1
 18 0 l 1
 18 14 l 1
 298 446 l 1
 194 446 l 2
EndSplineSet
EndChar

StartChar: comma
Encoding: 44 44 65
GlifName: comma
Width: 215
Flags: HMW
LayerCount: 2
Fore
SplineSet
40 49 m 0
 40 82 69 108 107 108 c 0
 146 108 177 77 177 4 c 0
 177 -66 128 -153 38 -153 c 1
 38 -139 l 1
 110 -139 165 -72 161 26 c 1
 145 0 121 -10 97 -10 c 0
 60 -10 40 16 40 49 c 0
EndSplineSet
EndChar

StartChar: exclam
Encoding: 33 33 67
GlifName: exclam
Width: 320
Flags: HMW
LayerCount: 2
Fore
SplineSet
218 659 m 0
 207 483 166 358 166 208 c 1
 152 208 l 1
 152 358 111 483 100 659 c 0
 100 666 100 672 100 678 c 0
 100 724 112 758 159 758 c 0
 206 758 219 724 219 678 c 0
 219 672 218 666 218 659 c 0
EndSplineSet
Refer: 1 46 N 1 0 0 1 60 0 2
EndChar

StartChar: quotesingle
Encoding: 39 39 70
GlifName: quotesingle
Width: 200
Flags: HMW
LayerCount: 2
Fore
SplineSet
149 681 m 24
 138 606 107 598 107 488 c 1
 93 488 l 1
 93 598 62 606 51 681 c 24
 50 688 50 693 50 699 c 0
 50 738 71 760 100 760 c 0
 129 760 150 738 150 699 c 0
 150 693 150 688 149 681 c 24
EndSplineSet
EndChar

StartChar: question
Encoding: 63 63 75
GlifName: question
Width: 550
Flags: HMW
LayerCount: 2
Fore
SplineSet
240 349 m 1
 347 376 399 467 399 560 c 0
 399 654 377 745 258 745 c 0
 164 745 92 671 84 625 c 1
 88 631 99 640 117 640 c 0
 146 640 174 620 174 585 c 0
 174 545 142 529 117 529 c 0
 87 529 60 550 60 591 c 0
 60 673 154 760 266 760 c 0
 407 760 500 680 500 560 c 0
 500 445 395 349 254 340 c 1
 254 209 l 1
 240 209 l 1
 240 349 l 1
EndSplineSet
Refer: 1 46 N 1 0 0 1 149 0 2
EndChar

StartChar: parenleft
Encoding: 40 40 76
GlifName: parenleft
Width: 362
Flags: HMW
LayerCount: 2
Fore
SplineSet
349 -158 m 1
 343 -170 l 1
 180 -100 65 92 65 325 c 0
 65 558 180 730 343 800 c 1
 349 788 l 1
 225 708 160 517 160 325 c 0
 160 133 225 -78 349 -158 c 1
EndSplineSet
EndChar

StartChar: at
Encoding: 64 64 79
GlifName: at
Width: 1010
VWidth: 1155
Flags: HMW
LayerCount: 2
Fore
SplineSet
624 352 m 0
 624 197 534 70 434 70 c 0
 355 70 284 126 284 230 c 0
 284 380 399 529 518 529 c 0
 599 529 624 434 624 352 c 0
613 346 m 0
 613 388 603 510 530 510 c 0
 456 510 385 357 385 233 c 0
 385 166 400 89 457 89 c 0
 528 89 613 214 613 346 c 0
590 210 m 2
 662 520 l 1
 752 520 l 1
 680 210 l 2
 677 197 633 85 710 85 c 0
 842 85 941 245 941 401 c 0
 941 579 831 776 584 776 c 0
 301 776 69 517 69 211 c 0
 69 -92 243 -200 419 -200 c 0
 582 -200 687 -152 775 -54 c 1
 785 -64 l 1
 701 -162 582 -214 419 -214 c 0
 236 -214 55 -103 55 211 c 0
 55 524 292 790 585 790 c 0
 838 790 955 584 955 401 c 0
 955 241 862 68 691 68 c 0
 602 68 576 148 590 210 c 2
EndSplineSet
EndChar

StartChar: dollar
Encoding: 36 36 80
GlifName: dollar
Width: 555
Flags: HMW
LayerCount: 2
Fore
SplineSet
310 830 m 1
 326 830 l 1
 326 -80 l 1
 310 -80 l 1
 310 830 l 1
220 830 m 1
 237 830 l 1
 237 -80 l 1
 220 -80 l 1
 220 830 l 1
469 632 m 1
 461 687 392 744 297 744 c 0
 191 744 130 684 130 605 c 0
 130 420 515 480 515 210 c 0
 515 70 422 -15 281 -15 c 0
 111 -15 30 80 30 145 c 0
 30 191 56 227 100 227 c 0
 130 227 164 205 164 161 c 0
 164 121 131 96 97 96 c 0
 76 96 61 106 54 114 c 1
 76 71 130 0 275 0 c 0
 381 0 445 66 445 165 c 0
 445 370 60 305 60 565 c 0
 60 685 170 760 291 760 c 0
 403 760 495 686 495 605 c 0
 495 559 469 523 425 523 c 0
 395 523 361 545 361 589 c 0
 361 629 394 654 428 654 c 0
 446 654 464 642 469 632 c 1
EndSplineSet
EndChar

StartChar: numbersign
Encoding: 35 35 81
GlifName: numbersign
Width: 630
Flags: HMW
LayerCount: 2
Fore
SplineSet
30 260 m 1
 570 260 l 1
 570 246 l 1
 30 246 l 1
 30 260 l 1
60 519 m 1
 600 519 l 1
 600 505 l 1
 60 505 l 1
 60 519 l 1
451 754 m 1
 465 755 l 1
 365 -5 l 1
 351 -6 l 1
 451 754 l 1
255 755 m 1
 269 755 l 1
 169 -5 l 1
 155 -5 l 1
 255 755 l 1
EndSplineSet
EndChar

StartChar: slash
Encoding: 47 47 82
GlifName: slash
Width: 520
Flags: HMW
LayerCount: 2
Fore
SplineSet
466 780 m 1
 480 780 l 1
 54 -150 l 1
 40 -150 l 1
 466 780 l 1
EndSplineSet
EndChar

StartChar: percent
Encoding: 37 37 83
GlifName: percent
Width: 1000
Flags: HMW
LayerCount: 2
Fore
SplineSet
675 210 m 0
 675 108 691 4 765 4 c 0
 839 4 855 108 855 210 c 0
 855 312 839 416 765 416 c 0
 691 416 675 312 675 210 c 0
565 210 m 0
 565 353 652 430 765 430 c 0
 878 430 965 353 965 210 c 0
 965 67 858 -10 765 -10 c 0
 652 -10 565 67 565 210 c 0
748 750 m 1
 765 750 l 1
 252 0 l 1
 235 0 l 1
 748 750 l 1
145 540 m 0
 145 438 161 334 235 334 c 0
 309 334 325 438 325 540 c 0
 325 642 309 746 235 746 c 0
 161 746 145 642 145 540 c 0
35 540 m 0
 35 683 122 760 235 760 c 0
 348 760 435 683 435 540 c 0
 435 397 328 320 235 320 c 0
 122 320 35 397 35 540 c 0
EndSplineSet
EndChar

StartChar: hyphen
Encoding: 45 45 85
GlifName: hyphen
Width: 360
Flags: HMW
LayerCount: 2
Fore
SplineSet
60 282 m 1
 300 282 l 1
 300 268 l 1
 60 268 l 1
 60 282 l 1
EndSplineSet
EndChar

StartChar: plus
Encoding: 43 43 87
GlifName: plus
Width: 530
Flags: HMW
LayerCount: 2
Fore
SplineSet
258 110 m 1
 258 520 l 1
 272 520 l 1
 272 110 l 1
 258 110 l 1
60 323 m 1
 470 323 l 1
 470 309 l 1
 60 309 l 1
 60 323 l 1
EndSplineSet
EndChar

StartChar: less
Encoding: 60 60 89
GlifName: less
Width: 560
Flags: HMW
LayerCount: 2
Fore
SplineSet
60 382 m 1
 60 396 l 1
 500 600 l 1
 500 586 l 1
 60 382 l 1
60 379 m 1
 60 393 l 1
 500 189 l 1
 500 175 l 1
 60 379 l 1
EndSplineSet
EndChar

StartChar: backslash
Encoding: 92 92 91
GlifName: backslash
Width: 520
Flags: HMW
LayerCount: 2
Fore
SplineSet
57 780 m 1
 480 -150 l 1
 463 -150 l 1
 40 780 l 1
 57 780 l 1
EndSplineSet
EndChar

StartChar: bracketleft
Encoding: 91 91 92
GlifName: bracketleft
Width: 325
Flags: HMW
LayerCount: 2
Fore
SplineSet
295 -150 m 1
 55 -150 l 1
 55 -136 l 1
 295 -136 l 1
 295 -150 l 1
295 766 m 1
 55 766 l 1
 55 780 l 1
 295 780 l 1
 295 766 l 1
145 780 m 1
 145 -150 l 1
 55 -150 l 1
 55 780 l 1
 145 780 l 1
EndSplineSet
EndChar

StartChar: braceleft
Encoding: 123 123 93
GlifName: braceleft
Width: 272
VWidth: 1155
Flags: HMW
LayerCount: 2
Fore
SplineSet
242 780 m 1
 242 766 l 1
 180 766 148 710 148 647 c 0
 148 571 182 531 182 431 c 0
 182 348 129 332 55 312 c 1
 55 322 l 1
 85 332 115 355 115 396 c 0
 115 459 55 504 55 641 c 0
 55 730 97 780 242 780 c 1
242 -150 m 1
 97 -150 55 -99 55 -10 c 0
 55 127 115 172 115 235 c 0
 115 276 85 298 55 308 c 1
 55 319 l 1
 129 299 182 283 182 200 c 0
 182 100 148 60 148 -16 c 0
 148 -79 180 -136 242 -136 c 1
 242 -150 l 1
EndSplineSet
EndChar

StartChar: bar
Encoding: 124 124 96
GlifName: bar
Width: 230
VWidth: 1155
Flags: HMW
LayerCount: 2
Fore
SplineSet
108 780 m 1
 122 780 l 1
 122 -250 l 1
 108 -250 l 1
 108 780 l 1
EndSplineSet
EndChar

StartChar: cent
Encoding: 162 162 98
GlifName: cent
Width: 489
VWidth: 1155
Flags: HMW
LayerCount: 2
Fore
SplineSet
275 555 m 1
 275 -85 l 1
 261 -85 l 1
 261 555 l 1
 275 555 l 1
EndSplineSet
Refer: 40 99 N 1 0 0 1 0 0 2
EndChar

StartChar: sterling
Encoding: 163 163 99
GlifName: sterling
Width: 625
VWidth: 1155
Flags: HMW
LayerCount: 2
Fore
SplineSet
602 157 m 1
 602 12 521 -30 432 -30 c 0
 295 -30 250 30 187 30 c 0
 146 30 96 10 86 -20 c 1
 78 -20 l 1
 98 54 139 97 222 97 c 0
 322 97 362 63 438 63 c 0
 501 63 588 75 588 157 c 1
 602 157 l 1
465 405 m 1
 465 391 l 1
 15 391 l 1
 15 405 l 1
 465 405 l 1
118 550 m 0
 118 690 223 760 384 760 c 0
 546 760 612 678 612 596 c 0
 612 555 583 534 553 534 c 0
 528 534 496 550 496 590 c 0
 496 625 524 645 553 645 c 0
 571 645 585 633 590 628 c 1
 590 670 533 746 397 746 c 0
 258 746 229 634 229 560 c 0
 229 461 285 395 285 320 c 0
 285 140 73 135 86 -20 c 1
 72 -20 l 1
 53 119 199 197 199 261 c 0
 199 375 118 435 118 550 c 0
EndSplineSet
EndChar

StartChar: section
Encoding: 167 167 101
GlifName: section
Width: 447
VWidth: 1155
Flags: HMW
LayerCount: 2
Fore
SplineSet
105 644 m 0
 105 528 417 538 417 385 c 0
 417 323 364 290 310 254 c 1
 295 260 l 1
 319 282 341 303 341 333 c 0
 341 464 62 426 62 608 c 0
 62 712 152 760 227 760 c 0
 315 760 401 718 401 612 c 0
 401 571 376 540 341 540 c 0
 311 540 287 560 287 596 c 0
 287 628 315 651 344 651 c 0
 355 651 369 645 373 644 c 1
 365 697 309 740 227 740 c 0
 164 740 105 701 105 644 c 0
409 162 m 0
 409 58 329 -10 214 -10 c 0
 126 -10 30 25 30 141 c 0
 30 182 55 213 90 213 c 0
 120 213 144 193 144 157 c 0
 144 125 116 102 87 102 c 0
 76 102 62 108 58 109 c 1
 71 43 142 10 214 10 c 0
 317 10 351 64 351 111 c 0
 351 227 38 212 38 355 c 0
 38 427 97 474 131 500 c 1
 150 500 l 1
 146 488 124 457 124 417 c 0
 124 286 409 344 409 162 c 0
EndSplineSet
EndChar

StartChar: asciitilde
Encoding: 126 126 104
GlifName: asciitilde
Width: 688
VWidth: 1155
Flags: HMW
LayerCount: 2
Fore
SplineSet
213 437 m 0
 160 437 114 415 114 343 c 1
 100 343 l 1
 100 458 170 510 249 510 c 0
 359 510 369 416 465 416 c 0
 528 416 574 438 574 510 c 1
 588 510 l 1
 588 395 518 343 439 343 c 0
 312 343 316 437 213 437 c 0
EndSplineSet
EndChar

StartChar: copyright
Encoding: 169 169 105
GlifName: copyright
Width: 870
Flags: HMW
LayerCount: 2
Fore
SplineSet
50 375 m 0
 50 588 222 760 435 760 c 0
 648 760 820 588 820 375 c 0
 820 162 648 -10 435 -10 c 0
 222 -10 50 162 50 375 c 0
64 375 m 0
 64 170 230 4 435 4 c 0
 640 4 806 170 806 375 c 0
 806 580 640 746 435 746 c 0
 230 746 64 580 64 375 c 0
EndSplineSet
Refer: 14 67 N 0.6 0 0 0.6 212 150 2
EndChar

StartChar: registered
Encoding: 174 174 106
GlifName: registered
Width: 870
Flags: HMW
LayerCount: 2
Fore
SplineSet
50 375 m 0
 50 588 222 760 435 760 c 0
 648 760 820 588 820 375 c 0
 820 162 648 -10 435 -10 c 0
 222 -10 50 162 50 375 c 0
64 375 m 0
 64 170 230 4 435 4 c 0
 640 4 806 170 806 375 c 0
 806 580 640 746 435 746 c 0
 230 746 64 580 64 375 c 0
EndSplineSet
Refer: 29 82 N 0.6 0 0 0.6 238 148 2
EndChar

StartChar: logicalnot
Encoding: 172 172 107
GlifName: logicalnot
Width: 486
Flags: HMW
LayerCount: 2
Fore
SplineSet
412 601 m 1
 60 601 l 1
 60 615 l 1
 426 615 l 1
 426 413 l 1
 412 413 l 1
 412 601 l 1
EndSplineSet
EndChar

StartChar: guillemotleft
Encoding: 171 171 108
GlifName: guillemotleft
Width: 695
Flags: HMW
LayerCount: 2
Fore
SplineSet
431 388 m 1
 642 152 l 1
 635 145 l 1
 305 375 l 1
 305 400 l 1
 635 630 l 1
 642 623 l 1
 431 388 l 1
151 388 m 1
 362 152 l 1
 355 145 l 1
 25 375 l 1
 25 400 l 1
 355 630 l 1
 362 623 l 1
 151 388 l 1
EndSplineSet
EndChar

StartChar: mu
Encoding: 181 181 111
GlifName: mu
Width: 574
VWidth: 1155
Flags: HMW
LayerCount: 2
Fore
SplineSet
265 -123 m 0
 298 -123 324 -152 324 -190 c 0
 324 -229 303 -260 230 -260 c 0
 160 -260 100 -211 100 -121 c 2
 100 321 l 1
 114 321 l 1
 114 -121 l 2
 114 -205 166 -248 240 -248 c 1
 240 -248 l 1
 214 -230 206 -205 206 -180 c 0
 206 -147 232 -123 265 -123 c 0
EndSplineSet
Refer: 58 117 N 1 0 0 1 0 0 2
EndChar

StartChar: asciicircum
Encoding: 94 94 113
GlifName: asciicircum
Width: 545
Flags: HMW
LayerCount: 2
Fore
SplineSet
272 723 m 1
 107 623 l 1
 100 630 l 1
 240 770 l 1
 305 770 l 1
 445 630 l 1
 438 623 l 1
 272 723 l 1
EndSplineSet
EndChar

StartChar: degree
Encoding: 176 176 115
GlifName: degree
Width: 320
Flags: HMW
LayerCount: 2
Fore
SplineSet
40 680 m 0
 40 746 94 800 160 800 c 0
 226 800 280 746 280 680 c 0
 280 614 226 560 160 560 c 0
 94 560 40 614 40 680 c 0
83 680 m 0
 83 636 116 603 160 603 c 0
 204 603 237 636 237 680 c 0
 237 724 204 757 160 757 c 0
 116 757 83 724 83 680 c 0
EndSplineSet
EndChar

StartChar: onequarter
Encoding: 188 188 119
GlifName: onequarter
Width: 641
Flags: HMW
LayerCount: 2
Fore
SplineSet
512 650 m 1
 526 650 l 1
 54 -100 l 1
 40 -100 l 1
 512 650 l 1
EndSplineSet
Refer: 6 52 N 0.6 0 0 0.6 270 -103 2
Refer: 3 49 N 0.6 0 0 0.6 -8 356 2
EndChar

StartChar: onehalf
Encoding: 189 189 120
GlifName: onehalf
Width: 670
Flags: HMW
LayerCount: 2
Fore
SplineSet
512 650 m 1
 526 650 l 1
 54 -100 l 1
 40 -100 l 1
 512 650 l 1
EndSplineSet
Refer: 4 50 N 0.6 0 0 0.6 341 -101 2
Refer: 3 49 N 0.6 0 0 0.6 -8 356 2
EndChar

StartChar: threequarters
Encoding: 190 190 121
GlifName: threequarters
Width: 701
Flags: HMW
LayerCount: 2
Fore
SplineSet
572 650 m 1
 586 650 l 1
 114 -100 l 1
 100 -100 l 1
 572 650 l 1
EndSplineSet
Refer: 5 51 N 0.6 0 0 0.6 5 354 2
Refer: 6 52 N 0.6 0 0 0.6 330 -103 2
EndChar

StartChar: grave
Encoding: 96 96 123
GlifName: grave
Width: 395
Flags: HMW
LayerCount: 2
Fore
SplineSet
90 720 m 2
 71 721 55 736 55 755 c 0
 55 774 72 795 100 788 c 2
 339 727 l 1
 335 713 l 1
 90 720 l 2
EndSplineSet
EndChar

StartChar: acute
Encoding: 180 180 124
GlifName: acute
Width: 395
Flags: HMW
LayerCount: 2
Fore
SplineSet
305 720 m 2
 60 713 l 1
 56 727 l 1
 295 788 l 2
 323 795 340 774 340 755 c 0
 340 736 324 721 305 720 c 2
EndSplineSet
EndChar

StartChar: cedilla
Encoding: 184 184 128
GlifName: cedilla
Width: 550
Flags: HMW
LayerCount: 2
Fore
SplineSet
329 -140 m 0
 329 -87 282 -79 217 -79 c 1
 307 41 l 1
 326 41 l 1
 266 -39 l 1
 338 -42 400 -64 400 -120 c 0
 400 -170 352 -214 231 -214 c 1
 231 -200 l 1
 290 -200 329 -174 329 -140 c 0
EndSplineSet
EndChar

StartChar: ring
Encoding: 730 730 271
GlifName: ring
Width: 320
VWidth: 0
Flags: HMW
LayerCount: 2
Fore
SplineSet
70 680 m 0
 70 731 109 770 160 770 c 0
 211 770 250 731 250 680 c 0
 250 629 211 590 160 590 c 0
 109 590 70 629 70 680 c 0
105 680 m 0
 105 638 119 604 160 604 c 0
 201 604 215 638 215 680 c 0
 215 722 201 756 160 756 c 0
 119 756 105 722 105 680 c 0
EndSplineSet
EndChar

StartChar: tilde
Encoding: 732 732 272
GlifName: tilde
Width: 448
VWidth: 0
Flags: HMW
LayerCount: 2
Fore
SplineSet
129 669 m 0
 96 669 64 652 64 600 c 1
 50 600 l 1
 50 685 100 727 149 727 c 0
 219 727 269 648 319 648 c 0
 356 648 384 665 384 717 c 1
 398 717 l 1
 398 622 368 590 309 590 c 0
 242 590 186 669 129 669 c 0
EndSplineSet
EndChar

StartChar: AE
Encoding: 198 198 274
GlifName: A_E_
Width: 1000
Flags: HMW
LayerCount: 2
Fore
SplineSet
525 750 m 1
 541 750 l 1
 113 0 l 1
 94 0 l 1
 525 750 l 1
15 14 m 1
 235 14 l 1
 235 0 l 1
 15 0 l 1
 15 14 l 1
246 252 m 1
 535 252 l 1
 535 238 l 1
 246 238 l 1
 246 252 l 1
525 750 m 1
 620 750 l 1
 620 0 l 1
 525 0 l 1
 525 750 l 1
525 750 m 1
 960 750 l 1
 960 545 l 1
 946 545 l 1
 946 652 907 736 790 736 c 2
 525 736 l 1
 525 750 l 1
970 0 m 1
 435 0 l 1
 435 14 l 1
 780 14 l 2
 917 14 956 98 956 225 c 1
 970 225 l 1
 970 0 l 1
776 278 m 1
 776 345 737 381 680 381 c 2
 620 381 l 1
 620 395 l 1
 680 395 l 2
 737 395 776 426 776 493 c 1
 790 493 l 1
 790 278 l 1
 776 278 l 1
EndSplineSet
EndChar

StartChar: ae
Encoding: 230 230 277
GlifName: ae
Width: 763
VWidth: 1155
Flags: HMW
LayerCount: 2
Fore
SplineSet
70 366 m 0
 70 428 157 468 248 468 c 0
 378 468 386 386 386 305 c 1
 371 181 l 1
 371 57 311 -10 200 -10 c 0
 121 -10 35 19 35 113 c 0
 35 197 112 258 254 258 c 2
 338 258 l 1
 338 244 l 1
 254 244 l 2
 178 244 137 190 137 128 c 0
 137 61 164 4 219 4 c 0
 276 4 316 80 316 181 c 2
 316 305 l 2
 316 372 308 450 228 450 c 0
 177 450 139 433 121 416 c 1
 153 421 181 400 181 368 c 0
 181 328 147 311 122 311 c 0
 92 311 70 330 70 366 c 0
631 265 m 1
 630 340 619 456 530 456 c 0
 431 456 405 344 405 230 c 0
 405 116 436 4 545 4 c 0
 637 4 699 66 724 143 c 1
 738 143 l 1
 712 56 644 -10 533 -10 c 0
 402 -10 320 80 320 230 c 0
 320 380 399 470 530 470 c 0
 679 470 737 360 737 251 c 1
 367 251 l 1
 367 265 l 1
 631 265 l 1
EndSplineSet
EndChar

StartChar: uni2010
Encoding: 8208 8208 279
GlifName: uni2010
Width: 360
Flags: HMW
LayerCount: 2
Fore
SplineSet
60 282 m 1
 300 282 l 1
 300 268 l 1
 60 268 l 1
 60 282 l 1
EndSplineSet
EndChar

StartChar: uni2011
Encoding: 8209 8209 280
GlifName: uni2011
Width: 287
Flags: HMW
LayerCount: 2
Fore
SplineSet
60 282 m 1
 227 282 l 1
 227 268 l 1
 60 268 l 1
 60 282 l 1
EndSplineSet
EndChar

StartChar: figuredash
Encoding: 8210 8210 282
GlifName: figuredash
Width: 445
Flags: HMW
LayerCount: 2
Fore
SplineSet
60 282 m 1
 385 282 l 1
 385 268 l 1
 60 268 l 1
 60 282 l 1
EndSplineSet
EndChar

StartChar: perthousand
Encoding: 8240 8240 285
GlifName: perthousand
Width: 1470
Flags: HMW
LayerCount: 2
Fore
SplineSet
1145 210 m 0
 1145 108 1161 4 1235 4 c 0
 1309 4 1325 108 1325 210 c 0
 1325 312 1309 416 1235 416 c 0
 1161 416 1145 312 1145 210 c 0
1035 210 m 0
 1035 353 1122 430 1235 430 c 0
 1348 430 1435 353 1435 210 c 0
 1435 67 1328 -10 1235 -10 c 0
 1122 -10 1035 67 1035 210 c 0
675 210 m 0
 675 108 691 4 765 4 c 0
 839 4 855 108 855 210 c 0
 855 312 839 416 765 416 c 0
 691 416 675 312 675 210 c 0
565 210 m 0
 565 353 652 430 765 430 c 0
 878 430 965 353 965 210 c 0
 965 67 858 -10 765 -10 c 0
 652 -10 565 67 565 210 c 0
748 750 m 1
 765 750 l 1
 252 0 l 1
 235 0 l 1
 748 750 l 1
145 540 m 0
 145 438 161 334 235 334 c 0
 309 334 325 438 325 540 c 0
 325 642 309 746 235 746 c 0
 161 746 145 642 145 540 c 0
35 540 m 0
 35 683 122 760 235 760 c 0
 348 760 435 683 435 540 c 0
 435 397 328 320 235 320 c 0
 122 320 35 397 35 540 c 0
EndSplineSet
EndChar

StartChar: uni2031
Encoding: 8241 8241 286
GlifName: uni2031
Width: 1950
Flags: HMW
LayerCount: 2
Fore
SplineSet
1625 210 m 0
 1625 108 1641 4 1715 4 c 0
 1789 4 1805 108 1805 210 c 0
 1805 312 1789 416 1715 416 c 0
 1641 416 1625 312 1625 210 c 0
1515 210 m 0
 1515 353 1602 430 1715 430 c 0
 1828 430 1915 353 1915 210 c 0
 1915 67 1808 -10 1715 -10 c 0
 1602 -10 1515 67 1515 210 c 0
1145 210 m 0
 1145 108 1161 4 1235 4 c 0
 1309 4 1325 108 1325 210 c 0
 1325 312 1309 416 1235 416 c 0
 1161 416 1145 312 1145 210 c 0
1035 210 m 0
 1035 353 1122 430 1235 430 c 0
 1348 430 1435 353 1435 210 c 0
 1435 67 1328 -10 1235 -10 c 0
 1122 -10 1035 67 1035 210 c 0
675 210 m 0
 675 108 691 4 765 4 c 0
 839 4 855 108 855 210 c 0
 855 312 839 416 765 416 c 0
 691 416 675 312 675 210 c 0
565 210 m 0
 565 353 652 430 765 430 c 0
 878 430 965 353 965 210 c 0
 965 67 858 -10 765 -10 c 0
 652 -10 565 67 565 210 c 0
748 750 m 1
 765 750 l 1
 252 0 l 1
 235 0 l 1
 748 750 l 1
145 540 m 0
 145 438 161 334 235 334 c 0
 309 334 325 438 325 540 c 0
 325 642 309 746 235 746 c 0
 161 746 145 642 145 540 c 0
35 540 m 0
 35 683 122 760 235 760 c 0
 348 760 435 683 435 540 c 0
 435 397 328 320 235 320 c 0
 122 320 35 397 35 540 c 0
EndSplineSet
EndChar

StartChar: uniFB00
Encoding: 64256 64256 290
GlifName: uniF_B_00
Width: 630
VWidth: 1155
Flags: HMW
LayerCount: 2
Fore
SplineSet
15 14 m 1
 598 14 l 1
 598 0 l 1
 15 0 l 1
 15 14 l 1
15 460 m 1
 618 460 l 1
 618 446 l 1
 15 446 l 1
 15 460 l 1
428 634 m 1
 427 657 384 696 322 696 c 0
 248 696 195 617 195 490 c 2
 195 0 l 1
 105 0 l 1
 105 462 l 2
 105 593 192 710 322 710 c 0
 403 710 455 654 455 601 c 0
 455 560 428 539 398 539 c 0
 373 539 342 555 342 594 c 0
 342 633 370 649 403 649 c 0
 413 649 424 644 428 634 c 1
683 694 m 1
 675 717 649 746 587 746 c 0
 507 746 480 667 480 540 c 2
 480 0 l 1
 390 0 l 1
 390 512 l 2
 390 643 457 760 587 760 c 0
 668 760 710 708 710 661 c 0
 710 620 683 599 653 599 c 0
 628 599 597 615 597 654 c 0
 597 693 625 709 658 709 c 0
 668 709 679 704 683 694 c 1
EndSplineSet
Ligature2: "'liga' Standard Ligatures lookup 0-1" f f
LCarets2: 1 0
EndChar

StartChar: uniFB01
Encoding: 64257 64257 291
GlifName: uniF_B_01
Width: 555
VWidth: 1155
Flags: HMW
LayerCount: 2
Fore
SplineSet
105 512 m 2
 105 643 182 760 332 760 c 0
 433 760 475 708 475 651 c 0
 475 610 448 589 418 589 c 0
 392 589 362 605 362 643 c 0
 362 682 390 699 423 699 c 0
 436 699 445 691 447 684 c 1
 446 710 414 746 332 746 c 0
 228 746 195 667 195 540 c 2
 195 0 l 1
 105 0 l 1
 105 512 l 2
15 14 m 1
 540 14 l 1
 540 0 l 1
 15 0 l 1
 15 14 l 1
380 446 m 1
 15 446 l 1
 15 460 l 1
 470 460 l 1
 470 0 l 1
 380 0 l 1
 380 446 l 1
EndSplineSet
Ligature2: "'liga' Standard Ligatures lookup 0-1" f i
LCarets2: 1 0
EndChar

StartChar: uniFB02
Encoding: 64258 64258 292
GlifName: uniF_B_02
Width: 565
VWidth: 1155
Flags: HMW
LayerCount: 2
Fore
SplineSet
15 14 m 1
 560 14 l 1
 560 0 l 1
 15 0 l 1
 15 14 l 1
15 460 m 1
 330 460 l 1
 330 446 l 1
 15 446 l 1
 15 460 l 1
400 730 m 1
 490 770 l 1
 490 0 l 1
 400 0 l 1
 400 730 l 1
408 684 m 1
 407 709 374 746 312 746 c 0
 225 746 195 667 195 540 c 2
 195 0 l 1
 105 0 l 1
 105 512 l 2
 105 643 182 760 312 760 c 0
 393 760 435 708 435 651 c 0
 435 610 408 589 378 589 c 0
 353 589 322 603 322 643 c 0
 322 683 351 699 385 699 c 0
 399 699 406 684 408 684 c 1
EndSplineSet
Ligature2: "'liga' Standard Ligatures lookup 0-1" f l
LCarets2: 1 0
EndChar

StartChar: uniFB03
Encoding: 64259 64259 293
GlifName: uniF_B_03
Width: 840
VWidth: 1155
Flags: HMW
LayerCount: 2
Fore
SplineSet
390 512 m 2
 390 643 467 760 617 760 c 0
 718 760 760 708 760 651 c 0
 760 610 733 589 703 589 c 0
 677 589 647 605 647 643 c 0
 647 682 675 699 708 699 c 0
 721 699 730 691 732 684 c 1
 731 710 699 746 617 746 c 0
 513 746 480 667 480 540 c 2
 480 0 l 1
 390 0 l 1
 390 512 l 2
15 14 m 1
 825 14 l 1
 825 0 l 1
 15 0 l 1
 15 14 l 1
105 462 m 2
 105 593 192 710 322 710 c 0
 403 710 455 654 455 601 c 0
 455 560 428 539 398 539 c 0
 373 539 342 555 342 594 c 0
 342 633 370 649 403 649 c 0
 413 649 424 644 428 634 c 1
 427 657 384 696 322 696 c 0
 248 696 195 617 195 490 c 2
 195 0 l 1
 105 0 l 1
 105 462 l 2
665 446 m 1
 15 446 l 1
 15 460 l 1
 755 460 l 1
 755 0 l 1
 665 0 l 1
 665 446 l 1
EndSplineSet
Ligature2: "'liga' Standard Ligatures lookup 0-1" f f i
LCarets2: 2 0 0
EndChar

StartChar: uniFB04
Encoding: 64260 64260 294
GlifName: uniF_B_04
Width: 860
VWidth: 1155
Flags: HMW
LayerCount: 2
Fore
SplineSet
15 14 m 1
 845 14 l 1
 845 0 l 1
 15 0 l 1
 15 14 l 1
15 460 m 1
 615 460 l 1
 615 446 l 1
 15 446 l 1
 15 460 l 1
685 730 m 1
 775 770 l 1
 775 0 l 1
 685 0 l 1
 685 730 l 1
428 634 m 1
 427 657 384 696 322 696 c 0
 248 696 195 617 195 490 c 2
 195 0 l 1
 105 0 l 1
 105 462 l 2
 105 593 192 710 322 710 c 0
 403 710 455 654 455 601 c 0
 455 560 428 539 398 539 c 0
 373 539 342 555 342 594 c 0
 342 633 370 649 403 649 c 0
 413 649 424 644 428 634 c 1
693 684 m 1
 692 709 659 746 597 746 c 0
 510 746 480 667 480 540 c 2
 480 0 l 1
 390 0 l 1
 390 512 l 2
 390 643 467 760 597 760 c 0
 678 760 720 708 720 651 c 0
 720 610 693 589 663 589 c 0
 638 589 607 603 607 643 c 0
 607 683 636 699 670 699 c 0
 684 699 691 684 693 684 c 1
EndSplineSet
Ligature2: "'liga' Standard Ligatures lookup 0-1" f f l
LCarets2: 2 0 0
EndChar

StartChar: ogonek
Encoding: 731 731 295
GlifName: ogonek
Width: 550
Flags: HMW
LayerCount: 2
Fore
SplineSet
388 -113 m 1
 373 -141 344 -186 273 -186 c 0
 222 -186 165 -160 165 -100 c 0
 165 -20 243 23 304 43 c 1
 307 35 l 1
 276 18 258 -29 258 -79 c 0
 258 -120 275 -160 309 -160 c 0
 345 -160 363 -133 377 -108 c 1
 388 -113 l 1
EndSplineSet
EndChar

StartChar: dotlessi
Encoding: 305 305 296
GlifName: dotlessi
Width: 270
VWidth: 1155
Flags: HMW
LayerCount: 2
Fore
SplineSet
20 14 m 1
 250 14 l 1
 250 0 l 1
 20 0 l 1
 20 14 l 1
90 446 m 1
 20 446 l 1
 20 460 l 1
 180 460 l 1
 180 0 l 1
 90 0 l 1
 90 446 l 1
EndSplineSet
EndChar

StartChar: uni0237
Encoding: 567 567 297
GlifName: uni0237
Width: 274
VWidth: 1155
Flags: HMW
LayerCount: 2
Fore
SplineSet
199 460 m 1
 199 -12 l 2
 199 -143 172 -260 42 -260 c 0
 -39 -260 -81 -208 -81 -151 c 0
 -81 -110 -54 -89 -24 -89 c 0
 1 -89 32 -103 32 -143 c 0
 32 -183 3 -199 -31 -199 c 0
 -42 -199 -53 -191 -54 -184 c 1
 -54 -209 -17 -245 37 -245 c 0
 127 -245 109 -107 109 20 c 2
 109 446 l 1
 19 446 l 1
 19 460 l 1
 199 460 l 1
EndSplineSet
EndChar

StartChar: kgreenlandic
Encoding: 312 312 306
GlifName: kgreenlandic
Width: 573
VWidth: 1155
Flags: HMW
LayerCount: 2
Fore
SplineSet
527 0 m 1
 414 0 l 1
 191 261 l 1
 443 460 l 1
 465 460 l 1
 269 303 l 1
 527 0 l 1
328 14 m 1
 565 14 l 1
 565 0 l 1
 328 0 l 1
 328 14 l 1
531 446 m 1
 308 446 l 1
 308 460 l 1
 531 460 l 1
 531 446 l 1
19 14 m 1
 269 14 l 1
 269 0 l 1
 19 0 l 1
 19 14 l 1
109 446 m 1
 19 446 l 1
 19 460 l 1
 199 460 l 1
 199 0 l 1
 109 0 l 1
 109 446 l 1
EndSplineSet
EndChar

StartChar: breve
Encoding: 728 728 307
GlifName: breve
Width: 280
VWidth: 1155
Flags: HMW
LayerCount: 2
Fore
SplineSet
44 759 m 1
 44 710 86 685 140 685 c 0
 194 685 236 710 236 759 c 1
 250 759 l 1
 250 698 230 630 140 630 c 0
 50 630 30 698 30 759 c 1
 44 759 l 1
EndSplineSet
EndChar

StartChar: thorn
Encoding: 254 254 318
GlifName: thorn
Width: 573
VWidth: 1155
Flags: HMW
LayerCount: 2
Fore
SplineSet
165 230 m 0
 165 382 224 469 331 469 c 0
 440 469 543 380 543 230 c 0
 543 80 440 -10 331 -10 c 0
 224 -10 165 78 165 230 c 0
175 230 m 0
 175 82 240 12 313 12 c 0
 397 12 438 96 438 230 c 0
 438 364 397 447 313 447 c 0
 240 447 175 378 175 230 c 0
15 -236 m 1
 245 -236 l 1
 245 -250 l 1
 15 -250 l 1
 15 -236 l 1
85 736 m 1
 15 736 l 1
 15 750 l 1
 175 750 l 1
 175 -250 l 1
 85 -250 l 1
 85 736 l 1
EndSplineSet
EndChar

StartChar: Thorn
Encoding: 222 222 319
GlifName: T_horn
Width: 605
Flags: HMW
LayerCount: 2
Fore
SplineSet
105 750 m 1
 200 750 l 1
 200 0 l 1
 105 0 l 1
 105 750 l 1
15 14 m 1
 290 14 l 1
 290 0 l 1
 15 0 l 1
 15 14 l 1
15 750 m 1
 290 750 l 1
 290 736 l 1
 15 736 l 1
 15 750 l 1
310 180 m 2
 180 180 l 1
 180 194 l 1
 310 194 l 2
 406 194 460 301 460 390 c 0
 460 479 406 586 310 586 c 2
 180 586 l 1
 180 600 l 1
 310 600 l 2
 491 600 570 520 570 390 c 0
 570 260 491 180 310 180 c 2
EndSplineSet
EndChar

StartChar: Lslash
Encoding: 321 321 324
GlifName: L_slash
Width: 570
Flags: HMW
LayerCount: 2
Fore
SplineSet
15 360 m 1
 360 580 l 1
 360 563 l 1
 15 343 l 1
 15 360 l 1
EndSplineSet
Refer: 23 76 N 1 0 0 1 0 0 2
EndChar

StartChar: lslash
Encoding: 322 322 325
GlifName: lslash
Width: 309
VWidth: 1155
Flags: HMW
LayerCount: 2
Fore
SplineSet
13 400 m 1
 298 580 l 1
 298 562 l 1
 13 382 l 1
 13 400 l 1
EndSplineSet
Refer: 49 108 N 1 0 0 1 0 0 2
EndChar

StartChar: eth
Encoding: 240 240 329
GlifName: eth
Width: 560
VWidth: 1155
Flags: HMW
LayerCount: 2
Fore
SplineSet
110 630 m 1
 530 630 l 1
 530 616 l 1
 110 616 l 1
 110 630 l 1
510 310 m 0
 510 100 417 -10 266 -10 c 0
 115 -10 30 100 30 250 c 0
 30 420 148 490 249 490 c 0
 380 490 420 397 420 280 c 1
 410 280 l 1
 410 391 361 469 271 469 c 0
 182 469 130 384 130 250 c 0
 130 136 154 4 263 4 c 0
 372 4 410 146 410 280 c 1
 407 352 l 1
 407 535 279 748 105 748 c 1
 105 760 l 1
 328 760 510 553 510 310 c 0
EndSplineSet
EndChar

StartChar: OE
Encoding: 338 338 330
GlifName: O_E_
Width: 950
Flags: HMW
LayerCount: 2
Fore
SplineSet
392 736 m 1025,0,0
155 375 m 0,0,0
 155 193 208 14 392 14 c 1,0,0
 382 0 l 1,0,0
 179 0 40 152 40 375 c 0,0,0
 40 598 179 750 382 750 c 1,0,0
 392 736 l 1,0,0
 208 736 155 557 155 375 c 0,0,0
EndSplineSet
Refer: 16 69 N 1 0 0 1 365 0 2
EndChar

StartChar: germandbls
Encoding: 223 223 332
GlifName: germandbls
Width: 681
VWidth: 1155
Flags: HMW
LayerCount: 2
Fore
SplineSet
343 402 m 1
 343 412 l 1
 472 412 510 507 510 571 c 0
 510 643 477 748 373 748 c 0
 239 748 195 623 195 481 c 2
 195 0 l 1
 105 0 l 1
 105 491 l 2
 105 664 210 760 373 760 c 0
 516 760 611 674 611 581 c 0
 611 481 544 402 343 402 c 1
15 14 m 1
 285 14 l 1
 285 0 l 1
 15 0 l 1
 15 14 l 1
641 160 m 0
 641 60 552 -10 451 -10 c 0
 380 -10 323 44 323 136 c 0
 323 177 350 201 385 201 c 0
 415 201 439 181 439 145 c 0
 439 113 411 90 382 90 c 0
 364 90 350 99 340 113 c 1
 344 51 390 4 446 4 c 0
 525 4 540 96 540 160 c 0
 540 254 512 399 343 399 c 1
 343 409 l 1
 584 409 641 290 641 160 c 0
EndSplineSet
EndChar

StartChar: circumflex
Encoding: 710 710 335
GlifName: circumflex
Width: 385
Flags: HMW
LayerCount: 2
Fore
SplineSet
192 725 m 1
 57 653 l 1
 50 660 l 1
 160 770 l 1
 225 770 l 1
 335 660 l 1
 328 653 l 1
 192 725 l 1
EndSplineSet
EndChar

StartChar: caron
Encoding: 711 711 336
GlifName: caron
Width: 385
Flags: HMW
LayerCount: 2
Fore
SplineSet
192 715 m 1
 328 787 l 1
 335 780 l 1
 225 670 l 1
 160 670 l 1
 50 780 l 1
 57 787 l 1
 192 715 l 1
EndSplineSet
EndChar

StartChar: pi
Encoding: 960 960 337
GlifName: pi
Width: 581
VWidth: 1155
Flags: HMW
LayerCount: 2
Fore
SplineSet
546 103 m 1
 523 33 485 -10 438 -10 c 0
 391 -10 346 14 346 73 c 2
 346 420 l 1
 436 420 l 1
 436 94 l 2
 436 74 449 58 473 58 c 0
 495 58 516 71 536 109 c 1
 546 103 l 1
104 -10 m 0
 63 -10 45 13 45 38 c 0
 45 106 157 82 157 279 c 2
 157 450 l 1
 213 450 l 1
 213 243 l 2
 213 85 172 -10 104 -10 c 0
526 460 m 1
 526 370 l 1
 55 370 l 1
 55 295 l 1
 41 295 l 1
 41 460 l 1
 526 460 l 1
EndSplineSet
EndChar

StartChar: uni1E9E
Encoding: 7838 7838 338
GlifName: uni1E_9E_
Width: 801
VWidth: 1155
Flags: HMW
LayerCount: 2
Fore
SplineSet
15 14 m 1
 295 14 l 1
 295 0 l 1
 15 0 l 1
 15 14 l 1
523 403 m 1
 423 415 l 1
 654 700 l 1
 614 723 546 746 463 746 c 0
 289 746 205 603 205 431 c 2
 205 0 l 1
 105 0 l 1
 105 441 l 2
 105 644 260 760 463 760 c 0
 616 760 701 694 731 661 c 1
 523 403 l 1
328 107 m 1
 332 65 389 6 491 6 c 0
 610 6 655 96 655 190 c 0
 655 264 642 402 423 402 c 1
 423 415 l 1
 714 415 761 300 761 190 c 0
 761 60 652 -10 511 -10 c 0
 369 -10 305 64 305 136 c 0
 305 177 330 201 365 201 c 0
 395 201 419 181 419 145 c 0
 419 113 391 90 362 90 c 0
 345 90 332 100 328 107 c 1
EndSplineSet
EndChar

StartChar: uni203D
Encoding: 8253 8253 339
GlifName: uni203D_
Width: 600
Flags: HMW
LayerCount: 2
Fore
SplineSet
366 484 m 0
 355 388 304 278 304 208 c 1
 290 208 l 1
 290 278 259 388 248 484 c 0
 247 491 247 497 247 503 c 0
 247 531 260 578 307 578 c 0
 354 578 367 531 367 503 c 0
 367 497 367 491 366 484 c 0
70 541 m 0
 70 633 164 760 326 760 c 0
 477 760 570 680 570 550 c 0
 570 430 448 335 327 335 c 1
 327 345 l 1
 414 356 479 463 479 560 c 0
 479 654 412 737 303 737 c 0
 169 737 101 633 94 574 c 1
 99 581 109 590 127 590 c 0
 156 590 184 570 184 535 c 0
 184 495 152 479 127 479 c 0
 97 479 70 500 70 541 c 0
EndSplineSet
Refer: 1 46 N 1 0 0 1 199 0 2
EndChar

StartChar: R.alt
Encoding: 65536 -1 340
GlifName: R_.alt
Width: 675
Flags: HMW
LayerCount: 2
Fore
SplineSet
350 383 m 2
 200 383 l 1
 200 392 l 1
 350 392 l 2
 446 392 500 456 500 565 c 0
 500 674 446 736 350 736 c 2
 20 736 l 1
 20 750 l 1
 350 750 l 2
 501 750 600 695 600 565 c 0
 600 435 511 383 350 383 c 2
20 14 m 1
 335 14 l 1
 335 0 l 1
 20 0 l 1
 20 14 l 1
130 750 m 1
 225 750 l 1
 225 0 l 1
 130 0 l 1
 130 750 l 1
665 0 m 1
 649 0 631 0 595 0 c 0
 362 0 581 378 345 378 c 2
 200 378 l 1
 200 385 l 1
 365 385 l 2
 708 385 517 14 630 14 c 0
 651 14 651 14 665 14 c 1
 665 0 l 1
EndSplineSet
EndChar

StartChar: J.alt
Encoding: 65537 -1 341
GlifName: J_.alt
Width: 541
Flags: HMW
LayerCount: 2
Fore
SplineSet
211 750 m 1
 526 750 l 1
 526 736 l 1
 211 736 l 1
 211 750 l 1
331 750 m 1
 426 750 l 1
 426 280 l 2
 426 120 347 -10 186 -10 c 0
 69 -10 20 75 20 145 c 0
 20 207 57 240 97 240 c 0
 132 240 163 222 163 176 c 0
 163 141 130 113 96 113 c 0
 71 113 43 126 35 147 c 1
 34 78 80 4 186 4 c 0
 307 4 331 110 331 250 c 2
 331 750 l 1
EndSplineSet
EndChar

StartChar: four.alt
Encoding: 65538 -1 342
GlifName: four.alt
Width: 595
VWidth: 1155
Flags: HMW
LayerCount: 2
Fore
SplineSet
530 14 m 1
 530 0 l 1
 265 0 l 1
 265 14 l 1
 530 14 l 1
455 498 m 1
 455 -1 l 1
 360 -1 l 1
 360 478 l 1
 390 478 435 488 455 498 c 1
40 199 m 1
 545 199 l 1
 545 185 l 1
 15 185 l 1
 155 385 320 600 340 750 c 1
 438 750 l 1
 419 605 181 393 40 199 c 1
EndSplineSet
EndChar

StartChar: fj.lig
Encoding: 65539 -1 343
GlifName: fj.lig
Width: 545
VWidth: 1155
Flags: HMW
LayerCount: 2
Fore
SplineSet
15 14 m 1
 290 14 l 1
 290 0 l 1
 15 0 l 1
 15 14 l 1
460 -12 m 2
 460 -143 433 -260 303 -260 c 0
 222 -260 180 -208 180 -151 c 0
 180 -110 207 -89 237 -89 c 0
 262 -89 293 -103 293 -143 c 0
 293 -183 264 -199 230 -199 c 0
 220 -199 209 -191 207 -184 c 1
 208 -211 246 -245 298 -245 c 0
 388 -245 370 -107 370 20 c 2
 370 446 l 1
 15 446 l 1
 15 460 l 1
 460 460 l 1
 460 -12 l 2
437 684 m 1
 437 708 405 746 322 746 c 0
 222 746 195 667 195 540 c 2
 195 0 l 1
 105 0 l 1
 105 512 l 2
 105 643 172 760 322 760 c 0
 423 760 465 708 465 651 c 0
 465 610 438 589 408 589 c 0
 383 589 352 603 352 643 c 0
 352 683 381 699 413 699 c 0
 426 699 434 691 437 684 c 1
EndSplineSet
LCarets2: 1 0
Ligature2: "'liga' Standard Ligatures lookup 0-1" f j
EndChar

StartChar: uni2116
Encoding: 8470 8470 344
Width: 1086
Flags: HW
LayerCount: 2
Fore
SplineSet
805 570 m 0
 805 456 830 394 889 394 c 0
 948 394 973 456 973 570 c 0
 973 684 948 746 889 746 c 0
 830 746 805 684 805 570 c 0
720 570 m 0
 720 690 788 760 889 760 c 0
 990 760 1058 690 1058 570 c 0
 1058 450 990 380 889 380 c 0
 788 380 720 450 720 570 c 0
EndSplineSet
Refer: 85 45 N 1 0 0 1 709 40 2
Refer: 25 78 N 1 0 0 1 0 0 2
EndChar

StartChar: Euro
Encoding: 8364 8364 345
Width: 710
Flags: HW
LayerCount: 2
Fore
SplineSet
631 650 m 1
 615 687 560 745 469 745 c 0
 300 745 240 549 240 375 c 0
 240 181 316 6 445 6 c 0
 544 6 613 90 638 178 c 1
 653 178 l 1
 627 81 554 -10 433 -10 c 0
 282 -10 125 145 125 375 c 0
 125 585 258 760 459 760 c 0
 581 760 655 668 655 616 c 0
 655 575 628 554 598 554 c 0
 573 554 541 570 541 610 c 0
 541 645 569 665 598 665 c 0
 616 665 627 655 631 650 c 1
EndSplineSet
Refer: 88 61 N 1 0 0 1 -30 -70 2
EndChar
